<mxfile host="65bd71144e">
    <diagram id="wyl2uCUMUe10Rk35AT16" name="定义构造函数">
        <mxGraphModel dx="1579" dy="1061" grid="0" gridSize="10" guides="1" tooltips="1" connect="1" arrows="1" fold="1" page="0" pageScale="1" pageWidth="1169" pageHeight="1654" background="#ffffff" math="0" shadow="0">
            <root>
                <mxCell id="0"/>
                <mxCell id="1" parent="0"/>
                <mxCell id="FJgl7Gt0l4zRdk0rx5yK-1" value="函数对象：function Person () {}&#10;0x100" style="shape=table;startSize=30;container=1;collapsible=0;childLayout=tableLayout;fontStyle=1;align=center;rounded=0;labelBorderColor=none;sketch=0;strokeColor=#000000;fontColor=#000000;fillColor=none;" vertex="1" parent="1">
                    <mxGeometry x="-228" y="-46" width="207" height="150" as="geometry"/>
                </mxCell>
                <mxCell id="FJgl7Gt0l4zRdk0rx5yK-2" value="" style="shape=tableRow;horizontal=0;startSize=0;swimlaneHead=0;swimlaneBody=0;top=0;left=0;bottom=0;right=0;collapsible=0;dropTarget=0;fillColor=none;points=[[0,0.5],[1,0.5]];portConstraint=eastwest;rounded=0;labelBorderColor=#000000;sketch=0;strokeColor=#000000;fontColor=#000000;" vertex="1" parent="FJgl7Gt0l4zRdk0rx5yK-1">
                    <mxGeometry y="30" width="207" height="40" as="geometry"/>
                </mxCell>
                <mxCell id="FJgl7Gt0l4zRdk0rx5yK-3" value="name" style="shape=partialRectangle;html=1;whiteSpace=wrap;connectable=0;fillColor=none;top=0;left=0;bottom=0;right=0;overflow=hidden;rounded=0;labelBorderColor=none;sketch=0;strokeColor=default;fontColor=#000000;" vertex="1" parent="FJgl7Gt0l4zRdk0rx5yK-2">
                    <mxGeometry width="104" height="40" as="geometry">
                        <mxRectangle width="104" height="40" as="alternateBounds"/>
                    </mxGeometry>
                </mxCell>
                <mxCell id="FJgl7Gt0l4zRdk0rx5yK-4" value="'Person'" style="shape=partialRectangle;html=1;whiteSpace=wrap;connectable=0;fillColor=none;top=0;left=0;bottom=0;right=0;overflow=hidden;rounded=0;labelBorderColor=none;sketch=0;strokeColor=#000000;fontColor=#000000;" vertex="1" parent="FJgl7Gt0l4zRdk0rx5yK-2">
                    <mxGeometry x="104" width="103" height="40" as="geometry">
                        <mxRectangle width="103" height="40" as="alternateBounds"/>
                    </mxGeometry>
                </mxCell>
                <mxCell id="FJgl7Gt0l4zRdk0rx5yK-6" value="" style="shape=tableRow;horizontal=0;startSize=0;swimlaneHead=0;swimlaneBody=0;top=0;left=0;bottom=0;right=0;collapsible=0;dropTarget=0;fillColor=none;points=[[0,0.5],[1,0.5]];portConstraint=eastwest;rounded=0;labelBorderColor=none;sketch=0;strokeColor=#000000;fontColor=#000000;labelBackgroundColor=default;" vertex="1" parent="FJgl7Gt0l4zRdk0rx5yK-1">
                    <mxGeometry y="70" width="207" height="40" as="geometry"/>
                </mxCell>
                <mxCell id="FJgl7Gt0l4zRdk0rx5yK-7" value="length" style="shape=partialRectangle;html=1;whiteSpace=wrap;connectable=0;fillColor=none;top=0;left=0;bottom=0;right=0;overflow=hidden;rounded=0;labelBorderColor=none;sketch=0;strokeColor=#000000;fontColor=#000000;" vertex="1" parent="FJgl7Gt0l4zRdk0rx5yK-6">
                    <mxGeometry width="104" height="40" as="geometry">
                        <mxRectangle width="104" height="40" as="alternateBounds"/>
                    </mxGeometry>
                </mxCell>
                <mxCell id="FJgl7Gt0l4zRdk0rx5yK-8" value="2" style="shape=partialRectangle;html=1;whiteSpace=wrap;connectable=0;fillColor=none;top=0;left=0;bottom=0;right=0;overflow=hidden;rounded=0;labelBorderColor=none;sketch=0;strokeColor=#000000;fontColor=#000000;" vertex="1" parent="FJgl7Gt0l4zRdk0rx5yK-6">
                    <mxGeometry x="104" width="103" height="40" as="geometry">
                        <mxRectangle width="103" height="40" as="alternateBounds"/>
                    </mxGeometry>
                </mxCell>
                <mxCell id="FJgl7Gt0l4zRdk0rx5yK-10" value="" style="shape=tableRow;horizontal=0;startSize=0;swimlaneHead=0;swimlaneBody=0;top=0;left=0;bottom=0;right=0;collapsible=0;dropTarget=0;fillColor=none;points=[[0,0.5],[1,0.5]];portConstraint=eastwest;rounded=0;labelBorderColor=#000000;sketch=0;strokeColor=#000000;fontColor=#000000;" vertex="1" parent="FJgl7Gt0l4zRdk0rx5yK-1">
                    <mxGeometry y="110" width="207" height="40" as="geometry"/>
                </mxCell>
                <mxCell id="FJgl7Gt0l4zRdk0rx5yK-11" value="prototype" style="shape=partialRectangle;html=1;whiteSpace=wrap;connectable=0;fillColor=none;top=0;left=0;bottom=0;right=0;overflow=hidden;rounded=0;labelBorderColor=none;sketch=0;strokeColor=#000000;fontColor=#000000;" vertex="1" parent="FJgl7Gt0l4zRdk0rx5yK-10">
                    <mxGeometry width="104" height="40" as="geometry">
                        <mxRectangle width="104" height="40" as="alternateBounds"/>
                    </mxGeometry>
                </mxCell>
                <mxCell id="FJgl7Gt0l4zRdk0rx5yK-12" value="0xa00" style="shape=partialRectangle;html=1;whiteSpace=wrap;connectable=0;fillColor=none;top=0;left=0;bottom=0;right=0;overflow=hidden;rounded=0;labelBorderColor=none;sketch=0;strokeColor=#000000;fontColor=#000000;" vertex="1" parent="FJgl7Gt0l4zRdk0rx5yK-10">
                    <mxGeometry x="104" width="103" height="40" as="geometry">
                        <mxRectangle width="103" height="40" as="alternateBounds"/>
                    </mxGeometry>
                </mxCell>
                <mxCell id="FJgl7Gt0l4zRdk0rx5yK-20" value="Person显示原型对象&#10;0xa00" style="shape=table;startSize=30;container=1;collapsible=0;childLayout=tableLayout;fontStyle=1;align=center;rounded=0;labelBorderColor=none;sketch=0;strokeColor=#000000;fontColor=#000000;fillColor=none;" vertex="1" parent="1">
                    <mxGeometry x="142" y="-44" width="207" height="70" as="geometry"/>
                </mxCell>
                <mxCell id="FJgl7Gt0l4zRdk0rx5yK-21" value="" style="shape=tableRow;horizontal=0;startSize=0;swimlaneHead=0;swimlaneBody=0;top=0;left=0;bottom=0;right=0;collapsible=0;dropTarget=0;fillColor=none;points=[[0,0.5],[1,0.5]];portConstraint=eastwest;rounded=0;labelBorderColor=#000000;sketch=0;strokeColor=#000000;fontColor=#000000;" vertex="1" parent="FJgl7Gt0l4zRdk0rx5yK-20">
                    <mxGeometry y="30" width="207" height="40" as="geometry"/>
                </mxCell>
                <mxCell id="FJgl7Gt0l4zRdk0rx5yK-22" value="constructor" style="shape=partialRectangle;html=1;whiteSpace=wrap;connectable=0;fillColor=none;top=0;left=0;bottom=0;right=0;overflow=hidden;rounded=0;labelBorderColor=none;sketch=0;strokeColor=default;fontColor=#000000;" vertex="1" parent="FJgl7Gt0l4zRdk0rx5yK-21">
                    <mxGeometry width="104" height="40" as="geometry">
                        <mxRectangle width="104" height="40" as="alternateBounds"/>
                    </mxGeometry>
                </mxCell>
                <mxCell id="FJgl7Gt0l4zRdk0rx5yK-23" value="0x100" style="shape=partialRectangle;html=1;whiteSpace=wrap;connectable=0;fillColor=none;top=0;left=0;bottom=0;right=0;overflow=hidden;rounded=0;labelBorderColor=none;sketch=0;strokeColor=#000000;fontColor=#000000;" vertex="1" parent="FJgl7Gt0l4zRdk0rx5yK-21">
                    <mxGeometry x="104" width="103" height="40" as="geometry">
                        <mxRectangle width="103" height="40" as="alternateBounds"/>
                    </mxGeometry>
                </mxCell>
                <mxCell id="FJgl7Gt0l4zRdk0rx5yK-53" value="" style="endArrow=classic;html=1;strokeColor=#d79b00;fontColor=#000000;fillColor=#ffcd28;strokeWidth=2;gradientColor=#ffa500;entryX=0;entryY=0.25;entryDx=0;entryDy=0;" edge="1" parent="1" target="FJgl7Gt0l4zRdk0rx5yK-20">
                    <mxGeometry width="50" height="50" relative="1" as="geometry">
                        <mxPoint x="-36" y="83" as="sourcePoint"/>
                        <mxPoint x="142" y="-40" as="targetPoint"/>
                    </mxGeometry>
                </mxCell>
                <mxCell id="FJgl7Gt0l4zRdk0rx5yK-57" value="" style="edgeStyle=elbowEdgeStyle;elbow=vertical;endArrow=classic;html=1;curved=0;rounded=0;endSize=8;startSize=8;strokeColor=#d79b00;strokeWidth=2;fontColor=#000000;fillColor=#ffcd28;gradientColor=#ffa500;" edge="1" parent="1">
                    <mxGeometry width="50" height="50" relative="1" as="geometry">
                        <mxPoint x="294" y="-3" as="sourcePoint"/>
                        <mxPoint x="-65" y="-53" as="targetPoint"/>
                        <Array as="points">
                            <mxPoint x="109" y="-93"/>
                        </Array>
                    </mxGeometry>
                </mxCell>
                <mxCell id="w6_u__DINNGLyIQgwP_P-2" value="堆内存" style="shape=partialRectangle;html=1;whiteSpace=wrap;connectable=0;fillColor=none;top=0;left=0;bottom=0;right=0;overflow=hidden;rounded=0;labelBorderColor=none;sketch=0;strokeColor=default;fontColor=#000000;" vertex="1" parent="1">
                    <mxGeometry x="51" y="-149" width="104" height="40" as="geometry">
                        <mxRectangle width="104" height="40" as="alternateBounds"/>
                    </mxGeometry>
                </mxCell>
            </root>
        </mxGraphModel>
    </diagram>
    <diagram name="使用new创建对象" id="v-B-7dnN2qQYW_L4RuCG">
        <mxGraphModel dx="1402" dy="962" grid="0" gridSize="10" guides="1" tooltips="1" connect="1" arrows="1" fold="1" page="0" pageScale="1" pageWidth="1169" pageHeight="1654" background="#ffffff" math="0" shadow="0">
            <root>
                <mxCell id="WdxYqnk1bHhYyXBj4oEr-0"/>
                <mxCell id="WdxYqnk1bHhYyXBj4oEr-1" parent="WdxYqnk1bHhYyXBj4oEr-0"/>
                <mxCell id="WdxYqnk1bHhYyXBj4oEr-2" value="函数对象：function Person () {}&#10;0x100" style="shape=table;startSize=30;container=1;collapsible=0;childLayout=tableLayout;fontStyle=1;align=center;rounded=0;labelBorderColor=none;sketch=0;strokeColor=#000000;fontColor=#000000;fillColor=none;" vertex="1" parent="WdxYqnk1bHhYyXBj4oEr-1">
                    <mxGeometry x="-228" y="-46" width="210" height="120" as="geometry"/>
                </mxCell>
                <mxCell id="WdxYqnk1bHhYyXBj4oEr-3" value="" style="shape=tableRow;horizontal=0;startSize=0;swimlaneHead=0;swimlaneBody=0;top=0;left=0;bottom=0;right=0;collapsible=0;dropTarget=0;fillColor=none;points=[[0,0.5],[1,0.5]];portConstraint=eastwest;rounded=0;labelBorderColor=#000000;sketch=0;strokeColor=#000000;fontColor=#000000;" vertex="1" parent="WdxYqnk1bHhYyXBj4oEr-2">
                    <mxGeometry y="30" width="210" height="30" as="geometry"/>
                </mxCell>
                <mxCell id="WdxYqnk1bHhYyXBj4oEr-4" value="name" style="shape=partialRectangle;html=1;whiteSpace=wrap;connectable=0;fillColor=none;top=0;left=0;bottom=0;right=0;overflow=hidden;rounded=0;labelBorderColor=none;sketch=0;strokeColor=default;fontColor=#000000;" vertex="1" parent="WdxYqnk1bHhYyXBj4oEr-3">
                    <mxGeometry width="106" height="30" as="geometry">
                        <mxRectangle width="106" height="30" as="alternateBounds"/>
                    </mxGeometry>
                </mxCell>
                <mxCell id="WdxYqnk1bHhYyXBj4oEr-5" value="'Person'" style="shape=partialRectangle;html=1;whiteSpace=wrap;connectable=0;fillColor=none;top=0;left=0;bottom=0;right=0;overflow=hidden;rounded=0;labelBorderColor=none;sketch=0;strokeColor=#000000;fontColor=#000000;" vertex="1" parent="WdxYqnk1bHhYyXBj4oEr-3">
                    <mxGeometry x="106" width="104" height="30" as="geometry">
                        <mxRectangle width="104" height="30" as="alternateBounds"/>
                    </mxGeometry>
                </mxCell>
                <mxCell id="WdxYqnk1bHhYyXBj4oEr-6" value="" style="shape=tableRow;horizontal=0;startSize=0;swimlaneHead=0;swimlaneBody=0;top=0;left=0;bottom=0;right=0;collapsible=0;dropTarget=0;fillColor=none;points=[[0,0.5],[1,0.5]];portConstraint=eastwest;rounded=0;labelBorderColor=none;sketch=0;strokeColor=#000000;fontColor=#000000;labelBackgroundColor=default;" vertex="1" parent="WdxYqnk1bHhYyXBj4oEr-2">
                    <mxGeometry y="60" width="210" height="30" as="geometry"/>
                </mxCell>
                <mxCell id="WdxYqnk1bHhYyXBj4oEr-7" value="length" style="shape=partialRectangle;html=1;whiteSpace=wrap;connectable=0;fillColor=none;top=0;left=0;bottom=0;right=0;overflow=hidden;rounded=0;labelBorderColor=none;sketch=0;strokeColor=#000000;fontColor=#000000;" vertex="1" parent="WdxYqnk1bHhYyXBj4oEr-6">
                    <mxGeometry width="106" height="30" as="geometry">
                        <mxRectangle width="106" height="30" as="alternateBounds"/>
                    </mxGeometry>
                </mxCell>
                <mxCell id="WdxYqnk1bHhYyXBj4oEr-8" value="2" style="shape=partialRectangle;html=1;whiteSpace=wrap;connectable=0;fillColor=none;top=0;left=0;bottom=0;right=0;overflow=hidden;rounded=0;labelBorderColor=none;sketch=0;strokeColor=#000000;fontColor=#000000;" vertex="1" parent="WdxYqnk1bHhYyXBj4oEr-6">
                    <mxGeometry x="106" width="104" height="30" as="geometry">
                        <mxRectangle width="104" height="30" as="alternateBounds"/>
                    </mxGeometry>
                </mxCell>
                <mxCell id="WdxYqnk1bHhYyXBj4oEr-9" value="" style="shape=tableRow;horizontal=0;startSize=0;swimlaneHead=0;swimlaneBody=0;top=0;left=0;bottom=0;right=0;collapsible=0;dropTarget=0;fillColor=none;points=[[0,0.5],[1,0.5]];portConstraint=eastwest;rounded=0;labelBorderColor=#000000;sketch=0;strokeColor=#000000;fontColor=#000000;" vertex="1" parent="WdxYqnk1bHhYyXBj4oEr-2">
                    <mxGeometry y="90" width="210" height="30" as="geometry"/>
                </mxCell>
                <mxCell id="WdxYqnk1bHhYyXBj4oEr-10" value="prototype" style="shape=partialRectangle;html=1;whiteSpace=wrap;connectable=0;fillColor=none;top=0;left=0;bottom=0;right=0;overflow=hidden;rounded=0;labelBorderColor=none;sketch=0;strokeColor=#000000;fontColor=#000000;" vertex="1" parent="WdxYqnk1bHhYyXBj4oEr-9">
                    <mxGeometry width="106" height="30" as="geometry">
                        <mxRectangle width="106" height="30" as="alternateBounds"/>
                    </mxGeometry>
                </mxCell>
                <mxCell id="WdxYqnk1bHhYyXBj4oEr-11" value="0xa00" style="shape=partialRectangle;html=1;whiteSpace=wrap;connectable=0;fillColor=none;top=0;left=0;bottom=0;right=0;overflow=hidden;rounded=0;labelBorderColor=none;sketch=0;strokeColor=#000000;fontColor=#000000;" vertex="1" parent="WdxYqnk1bHhYyXBj4oEr-9">
                    <mxGeometry x="106" width="104" height="30" as="geometry">
                        <mxRectangle width="104" height="30" as="alternateBounds"/>
                    </mxGeometry>
                </mxCell>
                <mxCell id="WdxYqnk1bHhYyXBj4oEr-12" value="Person显示原型对象&#10;0xa00" style="shape=table;startSize=30;container=1;collapsible=0;childLayout=tableLayout;fontStyle=1;align=center;rounded=0;labelBorderColor=none;sketch=0;strokeColor=#000000;fontColor=#000000;fillColor=none;" vertex="1" parent="WdxYqnk1bHhYyXBj4oEr-1">
                    <mxGeometry x="142" y="-44" width="207" height="110" as="geometry"/>
                </mxCell>
                <mxCell id="WdxYqnk1bHhYyXBj4oEr-13" value="" style="shape=tableRow;horizontal=0;startSize=0;swimlaneHead=0;swimlaneBody=0;top=0;left=0;bottom=0;right=0;collapsible=0;dropTarget=0;fillColor=none;points=[[0,0.5],[1,0.5]];portConstraint=eastwest;rounded=0;labelBorderColor=#000000;sketch=0;strokeColor=#000000;fontColor=#000000;" vertex="1" parent="WdxYqnk1bHhYyXBj4oEr-12">
                    <mxGeometry y="30" width="207" height="40" as="geometry"/>
                </mxCell>
                <mxCell id="WdxYqnk1bHhYyXBj4oEr-14" value="constructor" style="shape=partialRectangle;html=1;whiteSpace=wrap;connectable=0;fillColor=none;top=0;left=0;bottom=0;right=0;overflow=hidden;rounded=0;labelBorderColor=none;sketch=0;strokeColor=default;fontColor=#000000;" vertex="1" parent="WdxYqnk1bHhYyXBj4oEr-13">
                    <mxGeometry width="104" height="40" as="geometry">
                        <mxRectangle width="104" height="40" as="alternateBounds"/>
                    </mxGeometry>
                </mxCell>
                <mxCell id="WdxYqnk1bHhYyXBj4oEr-15" value="0x100" style="shape=partialRectangle;html=1;whiteSpace=wrap;connectable=0;fillColor=none;top=0;left=0;bottom=0;right=0;overflow=hidden;rounded=0;labelBorderColor=none;sketch=0;strokeColor=#000000;fontColor=#000000;" vertex="1" parent="WdxYqnk1bHhYyXBj4oEr-13">
                    <mxGeometry x="104" width="103" height="40" as="geometry">
                        <mxRectangle width="103" height="40" as="alternateBounds"/>
                    </mxGeometry>
                </mxCell>
                <mxCell id="3gLqvloMbl3Q9wreLMOT-10" value="" style="shape=tableRow;horizontal=0;startSize=0;swimlaneHead=0;swimlaneBody=0;top=0;left=0;bottom=0;right=0;collapsible=0;dropTarget=0;fillColor=none;points=[[0,0.5],[1,0.5]];portConstraint=eastwest;rounded=0;labelBorderColor=#000000;sketch=0;strokeColor=#000000;fontColor=#000000;" vertex="1" parent="WdxYqnk1bHhYyXBj4oEr-12">
                    <mxGeometry y="70" width="207" height="40" as="geometry"/>
                </mxCell>
                <mxCell id="3gLqvloMbl3Q9wreLMOT-11" value="running" style="shape=partialRectangle;html=1;whiteSpace=wrap;connectable=0;fillColor=none;top=0;left=0;bottom=0;right=0;overflow=hidden;rounded=0;labelBorderColor=none;sketch=0;strokeColor=default;fontColor=#000000;" vertex="1" parent="3gLqvloMbl3Q9wreLMOT-10">
                    <mxGeometry width="104" height="40" as="geometry">
                        <mxRectangle width="104" height="40" as="alternateBounds"/>
                    </mxGeometry>
                </mxCell>
                <mxCell id="3gLqvloMbl3Q9wreLMOT-12" value="0xb00" style="shape=partialRectangle;html=1;whiteSpace=wrap;connectable=0;fillColor=none;top=0;left=0;bottom=0;right=0;overflow=hidden;rounded=0;labelBorderColor=none;sketch=0;strokeColor=#000000;fontColor=#000000;" vertex="1" parent="3gLqvloMbl3Q9wreLMOT-10">
                    <mxGeometry x="104" width="103" height="40" as="geometry">
                        <mxRectangle width="103" height="40" as="alternateBounds"/>
                    </mxGeometry>
                </mxCell>
                <mxCell id="WdxYqnk1bHhYyXBj4oEr-16" value="实例对象：p1&#10;0x200" style="shape=table;startSize=30;container=1;collapsible=0;childLayout=tableLayout;fontStyle=1;align=center;rounded=0;labelBorderColor=none;sketch=0;strokeColor=#000000;fontColor=#000000;fillColor=none;" vertex="1" parent="WdxYqnk1bHhYyXBj4oEr-1">
                    <mxGeometry x="-226.5" y="97" width="209.5" height="121" as="geometry"/>
                </mxCell>
                <mxCell id="RFPZ-poUb_Ya3Ahvaqtd-0" style="shape=tableRow;horizontal=0;startSize=0;swimlaneHead=0;swimlaneBody=0;top=0;left=0;bottom=0;right=0;collapsible=0;dropTarget=0;fillColor=none;points=[[0,0.5],[1,0.5]];portConstraint=eastwest;rounded=0;labelBorderColor=#000000;sketch=0;strokeColor=#000000;fontColor=#000000;" vertex="1" parent="WdxYqnk1bHhYyXBj4oEr-16">
                    <mxGeometry y="30" width="209.5" height="31" as="geometry"/>
                </mxCell>
                <mxCell id="RFPZ-poUb_Ya3Ahvaqtd-1" style="shape=partialRectangle;html=1;whiteSpace=wrap;connectable=0;fillColor=none;top=0;left=0;bottom=0;right=0;overflow=hidden;rounded=0;labelBorderColor=none;sketch=0;strokeColor=default;fontColor=#000000;" vertex="1" parent="RFPZ-poUb_Ya3Ahvaqtd-0">
                    <mxGeometry width="105" height="31" as="geometry">
                        <mxRectangle width="105" height="31" as="alternateBounds"/>
                    </mxGeometry>
                </mxCell>
                <mxCell id="RFPZ-poUb_Ya3Ahvaqtd-2" style="shape=partialRectangle;html=1;whiteSpace=wrap;connectable=0;fillColor=none;top=0;left=0;bottom=0;right=0;overflow=hidden;rounded=0;labelBorderColor=none;sketch=0;strokeColor=#000000;fontColor=#000000;" vertex="1" parent="RFPZ-poUb_Ya3Ahvaqtd-0">
                    <mxGeometry x="105" width="105" height="31" as="geometry">
                        <mxRectangle width="105" height="31" as="alternateBounds"/>
                    </mxGeometry>
                </mxCell>
                <mxCell id="WdxYqnk1bHhYyXBj4oEr-17" value="" style="shape=tableRow;horizontal=0;startSize=0;swimlaneHead=0;swimlaneBody=0;top=0;left=0;bottom=0;right=0;collapsible=0;dropTarget=0;fillColor=none;points=[[0,0.5],[1,0.5]];portConstraint=eastwest;rounded=0;labelBorderColor=#000000;sketch=0;strokeColor=#000000;fontColor=#000000;" vertex="1" parent="WdxYqnk1bHhYyXBj4oEr-16">
                    <mxGeometry y="61" width="209.5" height="31" as="geometry"/>
                </mxCell>
                <mxCell id="WdxYqnk1bHhYyXBj4oEr-18" value="name" style="shape=partialRectangle;html=1;whiteSpace=wrap;connectable=0;fillColor=none;top=0;left=0;bottom=0;right=0;overflow=hidden;rounded=0;labelBorderColor=none;sketch=0;strokeColor=default;fontColor=#000000;" vertex="1" parent="WdxYqnk1bHhYyXBj4oEr-17">
                    <mxGeometry width="105" height="31" as="geometry">
                        <mxRectangle width="105" height="31" as="alternateBounds"/>
                    </mxGeometry>
                </mxCell>
                <mxCell id="WdxYqnk1bHhYyXBj4oEr-19" value="'why'" style="shape=partialRectangle;html=1;whiteSpace=wrap;connectable=0;fillColor=none;top=0;left=0;bottom=0;right=0;overflow=hidden;rounded=0;labelBorderColor=none;sketch=0;strokeColor=#000000;fontColor=#000000;" vertex="1" parent="WdxYqnk1bHhYyXBj4oEr-17">
                    <mxGeometry x="105" width="105" height="31" as="geometry">
                        <mxRectangle width="105" height="31" as="alternateBounds"/>
                    </mxGeometry>
                </mxCell>
                <mxCell id="WdxYqnk1bHhYyXBj4oEr-20" value="" style="shape=tableRow;horizontal=0;startSize=0;swimlaneHead=0;swimlaneBody=0;top=0;left=0;bottom=0;right=0;collapsible=0;dropTarget=0;fillColor=none;points=[[0,0.5],[1,0.5]];portConstraint=eastwest;rounded=0;labelBorderColor=none;sketch=0;strokeColor=#000000;fontColor=#000000;labelBackgroundColor=default;" vertex="1" parent="WdxYqnk1bHhYyXBj4oEr-16">
                    <mxGeometry y="92" width="209.5" height="29" as="geometry"/>
                </mxCell>
                <mxCell id="WdxYqnk1bHhYyXBj4oEr-21" value="age" style="shape=partialRectangle;html=1;whiteSpace=wrap;connectable=0;fillColor=none;top=0;left=0;bottom=0;right=0;overflow=hidden;rounded=0;labelBorderColor=none;sketch=0;strokeColor=#000000;fontColor=#000000;" vertex="1" parent="WdxYqnk1bHhYyXBj4oEr-20">
                    <mxGeometry width="105" height="29" as="geometry">
                        <mxRectangle width="105" height="29" as="alternateBounds"/>
                    </mxGeometry>
                </mxCell>
                <mxCell id="WdxYqnk1bHhYyXBj4oEr-22" value="18" style="shape=partialRectangle;html=1;whiteSpace=wrap;connectable=0;fillColor=none;top=0;left=0;bottom=0;right=0;overflow=hidden;rounded=0;labelBorderColor=none;sketch=0;strokeColor=#000000;fontColor=#000000;" vertex="1" parent="WdxYqnk1bHhYyXBj4oEr-20">
                    <mxGeometry x="105" width="105" height="29" as="geometry">
                        <mxRectangle width="105" height="29" as="alternateBounds"/>
                    </mxGeometry>
                </mxCell>
                <mxCell id="WdxYqnk1bHhYyXBj4oEr-26" value="实例对象：p2&#10;0x300" style="shape=table;startSize=30;container=1;collapsible=0;childLayout=tableLayout;fontStyle=1;align=center;rounded=0;labelBorderColor=none;sketch=0;strokeColor=#000000;fontColor=#000000;fillColor=none;" vertex="1" parent="WdxYqnk1bHhYyXBj4oEr-1">
                    <mxGeometry x="-225" y="249" width="209" height="113" as="geometry"/>
                </mxCell>
                <mxCell id="WdxYqnk1bHhYyXBj4oEr-33" value="" style="shape=tableRow;horizontal=0;startSize=0;swimlaneHead=0;swimlaneBody=0;top=0;left=0;bottom=0;right=0;collapsible=0;dropTarget=0;fillColor=none;points=[[0,0.5],[1,0.5]];portConstraint=eastwest;rounded=0;labelBorderColor=#000000;sketch=0;strokeColor=#000000;fontColor=#000000;" vertex="1" parent="WdxYqnk1bHhYyXBj4oEr-26">
                    <mxGeometry y="30" width="209" height="28" as="geometry"/>
                </mxCell>
                <mxCell id="WdxYqnk1bHhYyXBj4oEr-34" value="[[prototype]]" style="shape=partialRectangle;html=1;whiteSpace=wrap;connectable=0;fillColor=none;top=0;left=0;bottom=0;right=0;overflow=hidden;rounded=0;labelBorderColor=none;sketch=0;strokeColor=#000000;fontColor=#000000;" vertex="1" parent="WdxYqnk1bHhYyXBj4oEr-33">
                    <mxGeometry width="105" height="28" as="geometry">
                        <mxRectangle width="105" height="28" as="alternateBounds"/>
                    </mxGeometry>
                </mxCell>
                <mxCell id="WdxYqnk1bHhYyXBj4oEr-35" value="0xa00" style="shape=partialRectangle;html=1;whiteSpace=wrap;connectable=0;fillColor=none;top=0;left=0;bottom=0;right=0;overflow=hidden;rounded=0;labelBorderColor=none;sketch=0;strokeColor=#000000;fontColor=#000000;" vertex="1" parent="WdxYqnk1bHhYyXBj4oEr-33">
                    <mxGeometry x="105" width="104" height="28" as="geometry">
                        <mxRectangle width="104" height="28" as="alternateBounds"/>
                    </mxGeometry>
                </mxCell>
                <mxCell id="WdxYqnk1bHhYyXBj4oEr-27" value="" style="shape=tableRow;horizontal=0;startSize=0;swimlaneHead=0;swimlaneBody=0;top=0;left=0;bottom=0;right=0;collapsible=0;dropTarget=0;fillColor=none;points=[[0,0.5],[1,0.5]];portConstraint=eastwest;rounded=0;labelBorderColor=#000000;sketch=0;strokeColor=#000000;fontColor=#000000;" vertex="1" parent="WdxYqnk1bHhYyXBj4oEr-26">
                    <mxGeometry y="58" width="209" height="28" as="geometry"/>
                </mxCell>
                <mxCell id="WdxYqnk1bHhYyXBj4oEr-28" value="name" style="shape=partialRectangle;html=1;whiteSpace=wrap;connectable=0;fillColor=none;top=0;left=0;bottom=0;right=0;overflow=hidden;rounded=0;labelBorderColor=none;sketch=0;strokeColor=default;fontColor=#000000;" vertex="1" parent="WdxYqnk1bHhYyXBj4oEr-27">
                    <mxGeometry width="105" height="28" as="geometry">
                        <mxRectangle width="105" height="28" as="alternateBounds"/>
                    </mxGeometry>
                </mxCell>
                <mxCell id="WdxYqnk1bHhYyXBj4oEr-29" value="'why1'" style="shape=partialRectangle;html=1;whiteSpace=wrap;connectable=0;fillColor=none;top=0;left=0;bottom=0;right=0;overflow=hidden;rounded=0;labelBorderColor=none;sketch=0;strokeColor=#000000;fontColor=#000000;" vertex="1" parent="WdxYqnk1bHhYyXBj4oEr-27">
                    <mxGeometry x="105" width="104" height="28" as="geometry">
                        <mxRectangle width="104" height="28" as="alternateBounds"/>
                    </mxGeometry>
                </mxCell>
                <mxCell id="WdxYqnk1bHhYyXBj4oEr-30" value="" style="shape=tableRow;horizontal=0;startSize=0;swimlaneHead=0;swimlaneBody=0;top=0;left=0;bottom=0;right=0;collapsible=0;dropTarget=0;fillColor=none;points=[[0,0.5],[1,0.5]];portConstraint=eastwest;rounded=0;labelBorderColor=none;sketch=0;strokeColor=#000000;fontColor=#000000;labelBackgroundColor=default;" vertex="1" parent="WdxYqnk1bHhYyXBj4oEr-26">
                    <mxGeometry y="86" width="209" height="27" as="geometry"/>
                </mxCell>
                <mxCell id="WdxYqnk1bHhYyXBj4oEr-31" value="age" style="shape=partialRectangle;html=1;whiteSpace=wrap;connectable=0;fillColor=none;top=0;left=0;bottom=0;right=0;overflow=hidden;rounded=0;labelBorderColor=none;sketch=0;strokeColor=#000000;fontColor=#000000;" vertex="1" parent="WdxYqnk1bHhYyXBj4oEr-30">
                    <mxGeometry width="105" height="27" as="geometry">
                        <mxRectangle width="105" height="27" as="alternateBounds"/>
                    </mxGeometry>
                </mxCell>
                <mxCell id="WdxYqnk1bHhYyXBj4oEr-32" value="19" style="shape=partialRectangle;html=1;whiteSpace=wrap;connectable=0;fillColor=none;top=0;left=0;bottom=0;right=0;overflow=hidden;rounded=0;labelBorderColor=none;sketch=0;strokeColor=#000000;fontColor=#000000;" vertex="1" parent="WdxYqnk1bHhYyXBj4oEr-30">
                    <mxGeometry x="105" width="104" height="27" as="geometry">
                        <mxRectangle width="104" height="27" as="alternateBounds"/>
                    </mxGeometry>
                </mxCell>
                <mxCell id="WdxYqnk1bHhYyXBj4oEr-36" value="" style="endArrow=classic;html=1;strokeColor=#d79b00;fontColor=#000000;fillColor=#ffcd28;strokeWidth=2;gradientColor=#ffa500;entryX=0;entryY=0.25;entryDx=0;entryDy=0;exitX=1;exitY=0.5;exitDx=0;exitDy=0;" edge="1" parent="WdxYqnk1bHhYyXBj4oEr-1" target="WdxYqnk1bHhYyXBj4oEr-12" source="WdxYqnk1bHhYyXBj4oEr-9">
                    <mxGeometry width="50" height="50" relative="1" as="geometry">
                        <mxPoint x="-36" y="83" as="sourcePoint"/>
                        <mxPoint x="142" y="-40" as="targetPoint"/>
                    </mxGeometry>
                </mxCell>
                <mxCell id="WdxYqnk1bHhYyXBj4oEr-37" value="" style="endArrow=classic;html=1;strokeColor=#d79b00;fontColor=#000000;fillColor=#ffcd28;strokeWidth=2;entryX=0;entryY=0.25;entryDx=0;entryDy=0;gradientColor=#ffa500;" edge="1" parent="WdxYqnk1bHhYyXBj4oEr-1" target="WdxYqnk1bHhYyXBj4oEr-12">
                    <mxGeometry width="50" height="50" relative="1" as="geometry">
                        <mxPoint x="-17" y="142" as="sourcePoint"/>
                        <mxPoint x="136" y="-14" as="targetPoint"/>
                    </mxGeometry>
                </mxCell>
                <mxCell id="WdxYqnk1bHhYyXBj4oEr-38" value="" style="endArrow=classic;html=1;strokeColor=#d79b00;fontColor=#000000;fillColor=#ffcd28;strokeWidth=2;entryX=0;entryY=0.25;entryDx=0;entryDy=0;gradientColor=#ffa500;exitX=1;exitY=0.5;exitDx=0;exitDy=0;" edge="1" parent="WdxYqnk1bHhYyXBj4oEr-1" target="WdxYqnk1bHhYyXBj4oEr-12" source="WdxYqnk1bHhYyXBj4oEr-33">
                    <mxGeometry width="50" height="50" relative="1" as="geometry">
                        <mxPoint x="-33" y="450" as="sourcePoint"/>
                        <mxPoint x="142" y="163" as="targetPoint"/>
                    </mxGeometry>
                </mxCell>
                <mxCell id="WdxYqnk1bHhYyXBj4oEr-39" value="" style="edgeStyle=elbowEdgeStyle;elbow=vertical;endArrow=classic;html=1;curved=0;rounded=0;endSize=8;startSize=8;strokeColor=#d79b00;strokeWidth=2;fontColor=#000000;fillColor=#ffcd28;gradientColor=#ffa500;" edge="1" parent="WdxYqnk1bHhYyXBj4oEr-1">
                    <mxGeometry width="50" height="50" relative="1" as="geometry">
                        <mxPoint x="294" y="-3" as="sourcePoint"/>
                        <mxPoint x="-65" y="-53" as="targetPoint"/>
                        <Array as="points">
                            <mxPoint x="109" y="-93"/>
                        </Array>
                    </mxGeometry>
                </mxCell>
                <mxCell id="RFPZ-poUb_Ya3Ahvaqtd-3" value="[[prototype]]" style="shape=partialRectangle;html=1;whiteSpace=wrap;connectable=0;fillColor=none;top=0;left=0;bottom=0;right=0;overflow=hidden;rounded=0;labelBorderColor=none;sketch=0;strokeColor=#000000;fontColor=#000000;" vertex="1" parent="WdxYqnk1bHhYyXBj4oEr-1">
                    <mxGeometry x="-228" y="129" width="105" height="31" as="geometry">
                        <mxRectangle width="105" height="31" as="alternateBounds"/>
                    </mxGeometry>
                </mxCell>
                <mxCell id="RFPZ-poUb_Ya3Ahvaqtd-4" value="0xa00" style="shape=partialRectangle;html=1;whiteSpace=wrap;connectable=0;fillColor=none;top=0;left=0;bottom=0;right=0;overflow=hidden;rounded=0;labelBorderColor=none;sketch=0;strokeColor=#000000;fontColor=#000000;" vertex="1" parent="WdxYqnk1bHhYyXBj4oEr-1">
                    <mxGeometry x="-121" y="129" width="105" height="31" as="geometry">
                        <mxRectangle width="105" height="31" as="alternateBounds"/>
                    </mxGeometry>
                </mxCell>
                <mxCell id="sPNCVrZD3wPZg3wMz-Az-0" value="堆内存" style="shape=partialRectangle;html=1;whiteSpace=wrap;connectable=0;fillColor=none;top=0;left=0;bottom=0;right=0;overflow=hidden;rounded=0;labelBorderColor=none;sketch=0;strokeColor=default;fontColor=#000000;" vertex="1" parent="WdxYqnk1bHhYyXBj4oEr-1">
                    <mxGeometry x="8" y="-146" width="104" height="40" as="geometry">
                        <mxRectangle width="104" height="40" as="alternateBounds"/>
                    </mxGeometry>
                </mxCell>
                <mxCell id="3gLqvloMbl3Q9wreLMOT-3" value="running函数对象&#10;0xb00" style="shape=table;startSize=30;container=1;collapsible=0;childLayout=tableLayout;fontStyle=1;align=center;rounded=0;labelBorderColor=none;sketch=0;strokeColor=#000000;fontColor=#000000;fillColor=none;" vertex="1" parent="WdxYqnk1bHhYyXBj4oEr-1">
                    <mxGeometry x="142" y="112" width="213" height="91" as="geometry"/>
                </mxCell>
                <mxCell id="3gLqvloMbl3Q9wreLMOT-4" value="" style="shape=tableRow;horizontal=0;startSize=0;swimlaneHead=0;swimlaneBody=0;top=0;left=0;bottom=0;right=0;collapsible=0;dropTarget=0;fillColor=none;points=[[0,0.5],[1,0.5]];portConstraint=eastwest;rounded=0;labelBorderColor=#000000;sketch=0;strokeColor=#000000;fontColor=#000000;" vertex="1" parent="3gLqvloMbl3Q9wreLMOT-3">
                    <mxGeometry y="30" width="213" height="31" as="geometry"/>
                </mxCell>
                <mxCell id="3gLqvloMbl3Q9wreLMOT-5" value="name" style="shape=partialRectangle;html=1;whiteSpace=wrap;connectable=0;fillColor=none;top=0;left=0;bottom=0;right=0;overflow=hidden;rounded=0;labelBorderColor=none;sketch=0;strokeColor=default;fontColor=#000000;" vertex="1" parent="3gLqvloMbl3Q9wreLMOT-4">
                    <mxGeometry width="107" height="31" as="geometry">
                        <mxRectangle width="107" height="31" as="alternateBounds"/>
                    </mxGeometry>
                </mxCell>
                <mxCell id="3gLqvloMbl3Q9wreLMOT-6" value="''（匿名函数）" style="shape=partialRectangle;html=1;whiteSpace=wrap;connectable=0;fillColor=none;top=0;left=0;bottom=0;right=0;overflow=hidden;rounded=0;labelBorderColor=none;sketch=0;strokeColor=#000000;fontColor=#000000;" vertex="1" parent="3gLqvloMbl3Q9wreLMOT-4">
                    <mxGeometry x="107" width="106" height="31" as="geometry">
                        <mxRectangle width="106" height="31" as="alternateBounds"/>
                    </mxGeometry>
                </mxCell>
                <mxCell id="3gLqvloMbl3Q9wreLMOT-7" value="" style="shape=tableRow;horizontal=0;startSize=0;swimlaneHead=0;swimlaneBody=0;top=0;left=0;bottom=0;right=0;collapsible=0;dropTarget=0;fillColor=none;points=[[0,0.5],[1,0.5]];portConstraint=eastwest;rounded=0;labelBorderColor=#000000;sketch=0;strokeColor=#000000;fontColor=#000000;" vertex="1" parent="3gLqvloMbl3Q9wreLMOT-3">
                    <mxGeometry y="61" width="213" height="30" as="geometry"/>
                </mxCell>
                <mxCell id="3gLqvloMbl3Q9wreLMOT-8" value="length" style="shape=partialRectangle;html=1;whiteSpace=wrap;connectable=0;fillColor=none;top=0;left=0;bottom=0;right=0;overflow=hidden;rounded=0;labelBorderColor=none;sketch=0;strokeColor=default;fontColor=#000000;" vertex="1" parent="3gLqvloMbl3Q9wreLMOT-7">
                    <mxGeometry width="107" height="30" as="geometry">
                        <mxRectangle width="107" height="30" as="alternateBounds"/>
                    </mxGeometry>
                </mxCell>
                <mxCell id="3gLqvloMbl3Q9wreLMOT-9" value="0" style="shape=partialRectangle;html=1;whiteSpace=wrap;connectable=0;fillColor=none;top=0;left=0;bottom=0;right=0;overflow=hidden;rounded=0;labelBorderColor=none;sketch=0;strokeColor=#000000;fontColor=#000000;" vertex="1" parent="3gLqvloMbl3Q9wreLMOT-7">
                    <mxGeometry x="107" width="106" height="30" as="geometry">
                        <mxRectangle width="106" height="30" as="alternateBounds"/>
                    </mxGeometry>
                </mxCell>
                <mxCell id="3gLqvloMbl3Q9wreLMOT-13" value="" style="endArrow=classic;html=1;strokeColor=#d79b00;fontColor=#000000;fillColor=#ffcd28;strokeWidth=2;entryX=0.659;entryY=-0.005;entryDx=0;entryDy=0;gradientColor=#ffa500;entryPerimeter=0;" edge="1" parent="WdxYqnk1bHhYyXBj4oEr-1" target="3gLqvloMbl3Q9wreLMOT-3">
                    <mxGeometry width="50" height="50" relative="1" as="geometry">
                        <mxPoint x="284" y="55" as="sourcePoint"/>
                        <mxPoint x="152" y="-6.5" as="targetPoint"/>
                        <Array as="points">
                            <mxPoint x="284" y="55"/>
                        </Array>
                    </mxGeometry>
                </mxCell>
            </root>
        </mxGraphModel>
    </diagram>
    <diagram name="新增属性" id="4UgRcZXSNwgNcPrhkbPd">
        <mxGraphModel dx="1402" dy="962" grid="0" gridSize="10" guides="1" tooltips="1" connect="1" arrows="1" fold="1" page="0" pageScale="1" pageWidth="1169" pageHeight="1654" background="#ffffff" math="0" shadow="0">
            <root>
                <mxCell id="k9duDoh2DvghU8b0hZFh-0"/>
                <mxCell id="k9duDoh2DvghU8b0hZFh-1" parent="k9duDoh2DvghU8b0hZFh-0"/>
                <mxCell id="k9duDoh2DvghU8b0hZFh-2" value="函数对象：function Person () {}&#10;0x100" style="shape=table;startSize=30;container=1;collapsible=0;childLayout=tableLayout;fontStyle=1;align=center;rounded=0;labelBorderColor=none;sketch=0;strokeColor=#000000;fontColor=#000000;fillColor=none;" vertex="1" parent="k9duDoh2DvghU8b0hZFh-1">
                    <mxGeometry x="-228" y="-46" width="210" height="120" as="geometry"/>
                </mxCell>
                <mxCell id="k9duDoh2DvghU8b0hZFh-3" value="" style="shape=tableRow;horizontal=0;startSize=0;swimlaneHead=0;swimlaneBody=0;top=0;left=0;bottom=0;right=0;collapsible=0;dropTarget=0;fillColor=none;points=[[0,0.5],[1,0.5]];portConstraint=eastwest;rounded=0;labelBorderColor=#000000;sketch=0;strokeColor=#000000;fontColor=#000000;" vertex="1" parent="k9duDoh2DvghU8b0hZFh-2">
                    <mxGeometry y="30" width="210" height="30" as="geometry"/>
                </mxCell>
                <mxCell id="k9duDoh2DvghU8b0hZFh-4" value="name" style="shape=partialRectangle;html=1;whiteSpace=wrap;connectable=0;fillColor=none;top=0;left=0;bottom=0;right=0;overflow=hidden;rounded=0;labelBorderColor=none;sketch=0;strokeColor=default;fontColor=#000000;" vertex="1" parent="k9duDoh2DvghU8b0hZFh-3">
                    <mxGeometry width="106" height="30" as="geometry">
                        <mxRectangle width="106" height="30" as="alternateBounds"/>
                    </mxGeometry>
                </mxCell>
                <mxCell id="k9duDoh2DvghU8b0hZFh-5" value="'Person'" style="shape=partialRectangle;html=1;whiteSpace=wrap;connectable=0;fillColor=none;top=0;left=0;bottom=0;right=0;overflow=hidden;rounded=0;labelBorderColor=none;sketch=0;strokeColor=#000000;fontColor=#000000;" vertex="1" parent="k9duDoh2DvghU8b0hZFh-3">
                    <mxGeometry x="106" width="104" height="30" as="geometry">
                        <mxRectangle width="104" height="30" as="alternateBounds"/>
                    </mxGeometry>
                </mxCell>
                <mxCell id="k9duDoh2DvghU8b0hZFh-6" value="" style="shape=tableRow;horizontal=0;startSize=0;swimlaneHead=0;swimlaneBody=0;top=0;left=0;bottom=0;right=0;collapsible=0;dropTarget=0;fillColor=none;points=[[0,0.5],[1,0.5]];portConstraint=eastwest;rounded=0;labelBorderColor=none;sketch=0;strokeColor=#000000;fontColor=#000000;labelBackgroundColor=default;" vertex="1" parent="k9duDoh2DvghU8b0hZFh-2">
                    <mxGeometry y="60" width="210" height="30" as="geometry"/>
                </mxCell>
                <mxCell id="k9duDoh2DvghU8b0hZFh-7" value="length" style="shape=partialRectangle;html=1;whiteSpace=wrap;connectable=0;fillColor=none;top=0;left=0;bottom=0;right=0;overflow=hidden;rounded=0;labelBorderColor=none;sketch=0;strokeColor=#000000;fontColor=#000000;" vertex="1" parent="k9duDoh2DvghU8b0hZFh-6">
                    <mxGeometry width="106" height="30" as="geometry">
                        <mxRectangle width="106" height="30" as="alternateBounds"/>
                    </mxGeometry>
                </mxCell>
                <mxCell id="k9duDoh2DvghU8b0hZFh-8" value="2" style="shape=partialRectangle;html=1;whiteSpace=wrap;connectable=0;fillColor=none;top=0;left=0;bottom=0;right=0;overflow=hidden;rounded=0;labelBorderColor=none;sketch=0;strokeColor=#000000;fontColor=#000000;" vertex="1" parent="k9duDoh2DvghU8b0hZFh-6">
                    <mxGeometry x="106" width="104" height="30" as="geometry">
                        <mxRectangle width="104" height="30" as="alternateBounds"/>
                    </mxGeometry>
                </mxCell>
                <mxCell id="k9duDoh2DvghU8b0hZFh-9" value="" style="shape=tableRow;horizontal=0;startSize=0;swimlaneHead=0;swimlaneBody=0;top=0;left=0;bottom=0;right=0;collapsible=0;dropTarget=0;fillColor=none;points=[[0,0.5],[1,0.5]];portConstraint=eastwest;rounded=0;labelBorderColor=#000000;sketch=0;strokeColor=#000000;fontColor=#000000;" vertex="1" parent="k9duDoh2DvghU8b0hZFh-2">
                    <mxGeometry y="90" width="210" height="30" as="geometry"/>
                </mxCell>
                <mxCell id="k9duDoh2DvghU8b0hZFh-10" value="prototype" style="shape=partialRectangle;html=1;whiteSpace=wrap;connectable=0;fillColor=none;top=0;left=0;bottom=0;right=0;overflow=hidden;rounded=0;labelBorderColor=none;sketch=0;strokeColor=#000000;fontColor=#000000;" vertex="1" parent="k9duDoh2DvghU8b0hZFh-9">
                    <mxGeometry width="106" height="30" as="geometry">
                        <mxRectangle width="106" height="30" as="alternateBounds"/>
                    </mxGeometry>
                </mxCell>
                <mxCell id="k9duDoh2DvghU8b0hZFh-11" value="0xa00" style="shape=partialRectangle;html=1;whiteSpace=wrap;connectable=0;fillColor=none;top=0;left=0;bottom=0;right=0;overflow=hidden;rounded=0;labelBorderColor=none;sketch=0;strokeColor=#000000;fontColor=#000000;" vertex="1" parent="k9duDoh2DvghU8b0hZFh-9">
                    <mxGeometry x="106" width="104" height="30" as="geometry">
                        <mxRectangle width="104" height="30" as="alternateBounds"/>
                    </mxGeometry>
                </mxCell>
                <mxCell id="k9duDoh2DvghU8b0hZFh-12" value="Person显示原型对象&#10;0xa00" style="shape=table;startSize=30;container=1;collapsible=0;childLayout=tableLayout;fontStyle=1;align=center;rounded=0;labelBorderColor=none;sketch=0;strokeColor=#000000;fontColor=#000000;fillColor=none;" vertex="1" parent="k9duDoh2DvghU8b0hZFh-1">
                    <mxGeometry x="142" y="-44" width="209" height="156" as="geometry"/>
                </mxCell>
                <mxCell id="k9duDoh2DvghU8b0hZFh-13" value="" style="shape=tableRow;horizontal=0;startSize=0;swimlaneHead=0;swimlaneBody=0;top=0;left=0;bottom=0;right=0;collapsible=0;dropTarget=0;fillColor=none;points=[[0,0.5],[1,0.5]];portConstraint=eastwest;rounded=0;labelBorderColor=#000000;sketch=0;strokeColor=#000000;fontColor=#000000;" vertex="1" parent="k9duDoh2DvghU8b0hZFh-12">
                    <mxGeometry y="30" width="209" height="32" as="geometry"/>
                </mxCell>
                <mxCell id="k9duDoh2DvghU8b0hZFh-14" value="constructor" style="shape=partialRectangle;html=1;whiteSpace=wrap;connectable=0;fillColor=none;top=0;left=0;bottom=0;right=0;overflow=hidden;rounded=0;labelBorderColor=none;sketch=0;strokeColor=default;fontColor=#000000;" vertex="1" parent="k9duDoh2DvghU8b0hZFh-13">
                    <mxGeometry width="105" height="32" as="geometry">
                        <mxRectangle width="105" height="32" as="alternateBounds"/>
                    </mxGeometry>
                </mxCell>
                <mxCell id="k9duDoh2DvghU8b0hZFh-15" value="0x100" style="shape=partialRectangle;html=1;whiteSpace=wrap;connectable=0;fillColor=none;top=0;left=0;bottom=0;right=0;overflow=hidden;rounded=0;labelBorderColor=none;sketch=0;strokeColor=#000000;fontColor=#000000;" vertex="1" parent="k9duDoh2DvghU8b0hZFh-13">
                    <mxGeometry x="105" width="104" height="32" as="geometry">
                        <mxRectangle width="104" height="32" as="alternateBounds"/>
                    </mxGeometry>
                </mxCell>
                <mxCell id="k9duDoh2DvghU8b0hZFh-16" value="" style="shape=tableRow;horizontal=0;startSize=0;swimlaneHead=0;swimlaneBody=0;top=0;left=0;bottom=0;right=0;collapsible=0;dropTarget=0;fillColor=none;points=[[0,0.5],[1,0.5]];portConstraint=eastwest;rounded=0;labelBorderColor=#000000;sketch=0;strokeColor=#000000;fontColor=#000000;" vertex="1" parent="k9duDoh2DvghU8b0hZFh-12">
                    <mxGeometry y="62" width="209" height="30" as="geometry"/>
                </mxCell>
                <mxCell id="k9duDoh2DvghU8b0hZFh-17" value="running" style="shape=partialRectangle;html=1;whiteSpace=wrap;connectable=0;fillColor=none;top=0;left=0;bottom=0;right=0;overflow=hidden;rounded=0;labelBorderColor=none;sketch=0;strokeColor=default;fontColor=#000000;" vertex="1" parent="k9duDoh2DvghU8b0hZFh-16">
                    <mxGeometry width="105" height="30" as="geometry">
                        <mxRectangle width="105" height="30" as="alternateBounds"/>
                    </mxGeometry>
                </mxCell>
                <mxCell id="k9duDoh2DvghU8b0hZFh-18" value="0xb00" style="shape=partialRectangle;html=1;whiteSpace=wrap;connectable=0;fillColor=none;top=0;left=0;bottom=0;right=0;overflow=hidden;rounded=0;labelBorderColor=none;sketch=0;strokeColor=#000000;fontColor=#000000;" vertex="1" parent="k9duDoh2DvghU8b0hZFh-16">
                    <mxGeometry x="105" width="104" height="30" as="geometry">
                        <mxRectangle width="104" height="30" as="alternateBounds"/>
                    </mxGeometry>
                </mxCell>
                <mxCell id="MP-l0ZCnCXrRXzi3BT9l-0" value="" style="shape=tableRow;horizontal=0;startSize=0;swimlaneHead=0;swimlaneBody=0;top=0;left=0;bottom=0;right=0;collapsible=0;dropTarget=0;fillColor=none;points=[[0,0.5],[1,0.5]];portConstraint=eastwest;rounded=0;labelBorderColor=#000000;sketch=0;strokeColor=#000000;fontColor=#000000;" vertex="1" parent="k9duDoh2DvghU8b0hZFh-12">
                    <mxGeometry y="92" width="209" height="32" as="geometry"/>
                </mxCell>
                <mxCell id="MP-l0ZCnCXrRXzi3BT9l-1" value="address" style="shape=partialRectangle;html=1;whiteSpace=wrap;connectable=0;fillColor=none;top=0;left=0;bottom=0;right=0;overflow=hidden;rounded=0;labelBorderColor=none;sketch=0;strokeColor=default;fontColor=#000000;" vertex="1" parent="MP-l0ZCnCXrRXzi3BT9l-0">
                    <mxGeometry width="105" height="32" as="geometry">
                        <mxRectangle width="105" height="32" as="alternateBounds"/>
                    </mxGeometry>
                </mxCell>
                <mxCell id="MP-l0ZCnCXrRXzi3BT9l-2" value="中国" style="shape=partialRectangle;html=1;whiteSpace=wrap;connectable=0;fillColor=none;top=0;left=0;bottom=0;right=0;overflow=hidden;rounded=0;labelBorderColor=none;sketch=0;strokeColor=#000000;fontColor=#000000;" vertex="1" parent="MP-l0ZCnCXrRXzi3BT9l-0">
                    <mxGeometry x="105" width="104" height="32" as="geometry">
                        <mxRectangle width="104" height="32" as="alternateBounds"/>
                    </mxGeometry>
                </mxCell>
                <mxCell id="MP-l0ZCnCXrRXzi3BT9l-4" value="" style="shape=tableRow;horizontal=0;startSize=0;swimlaneHead=0;swimlaneBody=0;top=0;left=0;bottom=0;right=0;collapsible=0;dropTarget=0;fillColor=none;points=[[0,0.5],[1,0.5]];portConstraint=eastwest;rounded=0;labelBorderColor=#000000;sketch=0;strokeColor=#000000;fontColor=#000000;" vertex="1" parent="k9duDoh2DvghU8b0hZFh-12">
                    <mxGeometry y="124" width="209" height="32" as="geometry"/>
                </mxCell>
                <mxCell id="MP-l0ZCnCXrRXzi3BT9l-5" value="info" style="shape=partialRectangle;html=1;whiteSpace=wrap;connectable=0;fillColor=none;top=0;left=0;bottom=0;right=0;overflow=hidden;rounded=0;labelBorderColor=none;sketch=0;strokeColor=default;fontColor=#000000;" vertex="1" parent="MP-l0ZCnCXrRXzi3BT9l-4">
                    <mxGeometry width="105" height="32" as="geometry">
                        <mxRectangle width="105" height="32" as="alternateBounds"/>
                    </mxGeometry>
                </mxCell>
                <mxCell id="MP-l0ZCnCXrRXzi3BT9l-6" value="卷王" style="shape=partialRectangle;html=1;whiteSpace=wrap;connectable=0;fillColor=none;top=0;left=0;bottom=0;right=0;overflow=hidden;rounded=0;labelBorderColor=none;sketch=0;strokeColor=#000000;fontColor=#000000;" vertex="1" parent="MP-l0ZCnCXrRXzi3BT9l-4">
                    <mxGeometry x="105" width="104" height="32" as="geometry">
                        <mxRectangle width="104" height="32" as="alternateBounds"/>
                    </mxGeometry>
                </mxCell>
                <mxCell id="k9duDoh2DvghU8b0hZFh-19" value="实例对象：p1&#10;0x200" style="shape=table;startSize=30;container=1;collapsible=0;childLayout=tableLayout;fontStyle=1;align=center;rounded=0;labelBorderColor=none;sketch=0;strokeColor=#000000;fontColor=#000000;fillColor=none;" vertex="1" parent="k9duDoh2DvghU8b0hZFh-1">
                    <mxGeometry x="-226.5" y="97" width="209.5" height="150" as="geometry"/>
                </mxCell>
                <mxCell id="k9duDoh2DvghU8b0hZFh-20" style="shape=tableRow;horizontal=0;startSize=0;swimlaneHead=0;swimlaneBody=0;top=0;left=0;bottom=0;right=0;collapsible=0;dropTarget=0;fillColor=none;points=[[0,0.5],[1,0.5]];portConstraint=eastwest;rounded=0;labelBorderColor=#000000;sketch=0;strokeColor=#000000;fontColor=#000000;" vertex="1" parent="k9duDoh2DvghU8b0hZFh-19">
                    <mxGeometry y="30" width="209.5" height="31" as="geometry"/>
                </mxCell>
                <mxCell id="k9duDoh2DvghU8b0hZFh-21" style="shape=partialRectangle;html=1;whiteSpace=wrap;connectable=0;fillColor=none;top=0;left=0;bottom=0;right=0;overflow=hidden;rounded=0;labelBorderColor=none;sketch=0;strokeColor=default;fontColor=#000000;" vertex="1" parent="k9duDoh2DvghU8b0hZFh-20">
                    <mxGeometry width="105" height="31" as="geometry">
                        <mxRectangle width="105" height="31" as="alternateBounds"/>
                    </mxGeometry>
                </mxCell>
                <mxCell id="k9duDoh2DvghU8b0hZFh-22" style="shape=partialRectangle;html=1;whiteSpace=wrap;connectable=0;fillColor=none;top=0;left=0;bottom=0;right=0;overflow=hidden;rounded=0;labelBorderColor=none;sketch=0;strokeColor=#000000;fontColor=#000000;" vertex="1" parent="k9duDoh2DvghU8b0hZFh-20">
                    <mxGeometry x="105" width="105" height="31" as="geometry">
                        <mxRectangle width="105" height="31" as="alternateBounds"/>
                    </mxGeometry>
                </mxCell>
                <mxCell id="k9duDoh2DvghU8b0hZFh-23" value="" style="shape=tableRow;horizontal=0;startSize=0;swimlaneHead=0;swimlaneBody=0;top=0;left=0;bottom=0;right=0;collapsible=0;dropTarget=0;fillColor=none;points=[[0,0.5],[1,0.5]];portConstraint=eastwest;rounded=0;labelBorderColor=#000000;sketch=0;strokeColor=#000000;fontColor=#000000;" vertex="1" parent="k9duDoh2DvghU8b0hZFh-19">
                    <mxGeometry y="61" width="209.5" height="31" as="geometry"/>
                </mxCell>
                <mxCell id="k9duDoh2DvghU8b0hZFh-24" value="name" style="shape=partialRectangle;html=1;whiteSpace=wrap;connectable=0;fillColor=none;top=0;left=0;bottom=0;right=0;overflow=hidden;rounded=0;labelBorderColor=none;sketch=0;strokeColor=default;fontColor=#000000;" vertex="1" parent="k9duDoh2DvghU8b0hZFh-23">
                    <mxGeometry width="105" height="31" as="geometry">
                        <mxRectangle width="105" height="31" as="alternateBounds"/>
                    </mxGeometry>
                </mxCell>
                <mxCell id="k9duDoh2DvghU8b0hZFh-25" value="'why'" style="shape=partialRectangle;html=1;whiteSpace=wrap;connectable=0;fillColor=none;top=0;left=0;bottom=0;right=0;overflow=hidden;rounded=0;labelBorderColor=none;sketch=0;strokeColor=#000000;fontColor=#000000;" vertex="1" parent="k9duDoh2DvghU8b0hZFh-23">
                    <mxGeometry x="105" width="105" height="31" as="geometry">
                        <mxRectangle width="105" height="31" as="alternateBounds"/>
                    </mxGeometry>
                </mxCell>
                <mxCell id="k9duDoh2DvghU8b0hZFh-26" value="" style="shape=tableRow;horizontal=0;startSize=0;swimlaneHead=0;swimlaneBody=0;top=0;left=0;bottom=0;right=0;collapsible=0;dropTarget=0;fillColor=none;points=[[0,0.5],[1,0.5]];portConstraint=eastwest;rounded=0;labelBorderColor=none;sketch=0;strokeColor=#000000;fontColor=#000000;labelBackgroundColor=default;" vertex="1" parent="k9duDoh2DvghU8b0hZFh-19">
                    <mxGeometry y="92" width="209.5" height="29" as="geometry"/>
                </mxCell>
                <mxCell id="k9duDoh2DvghU8b0hZFh-27" value="age" style="shape=partialRectangle;html=1;whiteSpace=wrap;connectable=0;fillColor=none;top=0;left=0;bottom=0;right=0;overflow=hidden;rounded=0;labelBorderColor=none;sketch=0;strokeColor=#000000;fontColor=#000000;" vertex="1" parent="k9duDoh2DvghU8b0hZFh-26">
                    <mxGeometry width="105" height="29" as="geometry">
                        <mxRectangle width="105" height="29" as="alternateBounds"/>
                    </mxGeometry>
                </mxCell>
                <mxCell id="k9duDoh2DvghU8b0hZFh-28" value="18" style="shape=partialRectangle;html=1;whiteSpace=wrap;connectable=0;fillColor=none;top=0;left=0;bottom=0;right=0;overflow=hidden;rounded=0;labelBorderColor=none;sketch=0;strokeColor=#000000;fontColor=#000000;" vertex="1" parent="k9duDoh2DvghU8b0hZFh-26">
                    <mxGeometry x="105" width="105" height="29" as="geometry">
                        <mxRectangle width="105" height="29" as="alternateBounds"/>
                    </mxGeometry>
                </mxCell>
                <mxCell id="MP-l0ZCnCXrRXzi3BT9l-7" value="" style="shape=tableRow;horizontal=0;startSize=0;swimlaneHead=0;swimlaneBody=0;top=0;left=0;bottom=0;right=0;collapsible=0;dropTarget=0;fillColor=none;points=[[0,0.5],[1,0.5]];portConstraint=eastwest;rounded=0;labelBorderColor=none;sketch=0;strokeColor=#000000;fontColor=#000000;labelBackgroundColor=default;" vertex="1" parent="k9duDoh2DvghU8b0hZFh-19">
                    <mxGeometry y="121" width="209.5" height="29" as="geometry"/>
                </mxCell>
                <mxCell id="MP-l0ZCnCXrRXzi3BT9l-8" value="height" style="shape=partialRectangle;html=1;whiteSpace=wrap;connectable=0;fillColor=none;top=0;left=0;bottom=0;right=0;overflow=hidden;rounded=0;labelBorderColor=none;sketch=0;strokeColor=#000000;fontColor=#000000;" vertex="1" parent="MP-l0ZCnCXrRXzi3BT9l-7">
                    <mxGeometry width="105" height="29" as="geometry">
                        <mxRectangle width="105" height="29" as="alternateBounds"/>
                    </mxGeometry>
                </mxCell>
                <mxCell id="MP-l0ZCnCXrRXzi3BT9l-9" value="1.88" style="shape=partialRectangle;html=1;whiteSpace=wrap;connectable=0;fillColor=none;top=0;left=0;bottom=0;right=0;overflow=hidden;rounded=0;labelBorderColor=none;sketch=0;strokeColor=#000000;fontColor=#000000;" vertex="1" parent="MP-l0ZCnCXrRXzi3BT9l-7">
                    <mxGeometry x="105" width="105" height="29" as="geometry">
                        <mxRectangle width="105" height="29" as="alternateBounds"/>
                    </mxGeometry>
                </mxCell>
                <mxCell id="k9duDoh2DvghU8b0hZFh-29" value="实例对象：p2&#10;0x300" style="shape=table;startSize=30;container=1;collapsible=0;childLayout=tableLayout;fontStyle=1;align=center;rounded=0;labelBorderColor=none;sketch=0;strokeColor=#000000;fontColor=#000000;fillColor=none;" vertex="1" parent="k9duDoh2DvghU8b0hZFh-1">
                    <mxGeometry x="-226.5" y="274" width="209" height="140" as="geometry"/>
                </mxCell>
                <mxCell id="k9duDoh2DvghU8b0hZFh-30" value="" style="shape=tableRow;horizontal=0;startSize=0;swimlaneHead=0;swimlaneBody=0;top=0;left=0;bottom=0;right=0;collapsible=0;dropTarget=0;fillColor=none;points=[[0,0.5],[1,0.5]];portConstraint=eastwest;rounded=0;labelBorderColor=#000000;sketch=0;strokeColor=#000000;fontColor=#000000;" vertex="1" parent="k9duDoh2DvghU8b0hZFh-29">
                    <mxGeometry y="30" width="209" height="28" as="geometry"/>
                </mxCell>
                <mxCell id="k9duDoh2DvghU8b0hZFh-31" value="[[prototype]]" style="shape=partialRectangle;html=1;whiteSpace=wrap;connectable=0;fillColor=none;top=0;left=0;bottom=0;right=0;overflow=hidden;rounded=0;labelBorderColor=none;sketch=0;strokeColor=#000000;fontColor=#000000;" vertex="1" parent="k9duDoh2DvghU8b0hZFh-30">
                    <mxGeometry width="105" height="28" as="geometry">
                        <mxRectangle width="105" height="28" as="alternateBounds"/>
                    </mxGeometry>
                </mxCell>
                <mxCell id="k9duDoh2DvghU8b0hZFh-32" value="0xa00" style="shape=partialRectangle;html=1;whiteSpace=wrap;connectable=0;fillColor=none;top=0;left=0;bottom=0;right=0;overflow=hidden;rounded=0;labelBorderColor=none;sketch=0;strokeColor=#000000;fontColor=#000000;" vertex="1" parent="k9duDoh2DvghU8b0hZFh-30">
                    <mxGeometry x="105" width="104" height="28" as="geometry">
                        <mxRectangle width="104" height="28" as="alternateBounds"/>
                    </mxGeometry>
                </mxCell>
                <mxCell id="k9duDoh2DvghU8b0hZFh-33" value="" style="shape=tableRow;horizontal=0;startSize=0;swimlaneHead=0;swimlaneBody=0;top=0;left=0;bottom=0;right=0;collapsible=0;dropTarget=0;fillColor=none;points=[[0,0.5],[1,0.5]];portConstraint=eastwest;rounded=0;labelBorderColor=#000000;sketch=0;strokeColor=#000000;fontColor=#000000;" vertex="1" parent="k9duDoh2DvghU8b0hZFh-29">
                    <mxGeometry y="58" width="209" height="28" as="geometry"/>
                </mxCell>
                <mxCell id="k9duDoh2DvghU8b0hZFh-34" value="name" style="shape=partialRectangle;html=1;whiteSpace=wrap;connectable=0;fillColor=none;top=0;left=0;bottom=0;right=0;overflow=hidden;rounded=0;labelBorderColor=none;sketch=0;strokeColor=default;fontColor=#000000;" vertex="1" parent="k9duDoh2DvghU8b0hZFh-33">
                    <mxGeometry width="105" height="28" as="geometry">
                        <mxRectangle width="105" height="28" as="alternateBounds"/>
                    </mxGeometry>
                </mxCell>
                <mxCell id="k9duDoh2DvghU8b0hZFh-35" value="'why1'" style="shape=partialRectangle;html=1;whiteSpace=wrap;connectable=0;fillColor=none;top=0;left=0;bottom=0;right=0;overflow=hidden;rounded=0;labelBorderColor=none;sketch=0;strokeColor=#000000;fontColor=#000000;" vertex="1" parent="k9duDoh2DvghU8b0hZFh-33">
                    <mxGeometry x="105" width="104" height="28" as="geometry">
                        <mxRectangle width="104" height="28" as="alternateBounds"/>
                    </mxGeometry>
                </mxCell>
                <mxCell id="k9duDoh2DvghU8b0hZFh-36" value="" style="shape=tableRow;horizontal=0;startSize=0;swimlaneHead=0;swimlaneBody=0;top=0;left=0;bottom=0;right=0;collapsible=0;dropTarget=0;fillColor=none;points=[[0,0.5],[1,0.5]];portConstraint=eastwest;rounded=0;labelBorderColor=none;sketch=0;strokeColor=#000000;fontColor=#000000;labelBackgroundColor=default;" vertex="1" parent="k9duDoh2DvghU8b0hZFh-29">
                    <mxGeometry y="86" width="209" height="27" as="geometry"/>
                </mxCell>
                <mxCell id="k9duDoh2DvghU8b0hZFh-37" value="age" style="shape=partialRectangle;html=1;whiteSpace=wrap;connectable=0;fillColor=none;top=0;left=0;bottom=0;right=0;overflow=hidden;rounded=0;labelBorderColor=none;sketch=0;strokeColor=#000000;fontColor=#000000;" vertex="1" parent="k9duDoh2DvghU8b0hZFh-36">
                    <mxGeometry width="105" height="27" as="geometry">
                        <mxRectangle width="105" height="27" as="alternateBounds"/>
                    </mxGeometry>
                </mxCell>
                <mxCell id="k9duDoh2DvghU8b0hZFh-38" value="19" style="shape=partialRectangle;html=1;whiteSpace=wrap;connectable=0;fillColor=none;top=0;left=0;bottom=0;right=0;overflow=hidden;rounded=0;labelBorderColor=none;sketch=0;strokeColor=#000000;fontColor=#000000;" vertex="1" parent="k9duDoh2DvghU8b0hZFh-36">
                    <mxGeometry x="105" width="104" height="27" as="geometry">
                        <mxRectangle width="104" height="27" as="alternateBounds"/>
                    </mxGeometry>
                </mxCell>
                <mxCell id="MP-l0ZCnCXrRXzi3BT9l-10" value="" style="shape=tableRow;horizontal=0;startSize=0;swimlaneHead=0;swimlaneBody=0;top=0;left=0;bottom=0;right=0;collapsible=0;dropTarget=0;fillColor=none;points=[[0,0.5],[1,0.5]];portConstraint=eastwest;rounded=0;labelBorderColor=none;sketch=0;strokeColor=#000000;fontColor=#000000;labelBackgroundColor=default;" vertex="1" parent="k9duDoh2DvghU8b0hZFh-29">
                    <mxGeometry y="113" width="209" height="27" as="geometry"/>
                </mxCell>
                <mxCell id="MP-l0ZCnCXrRXzi3BT9l-11" value="isAdmin" style="shape=partialRectangle;html=1;whiteSpace=wrap;connectable=0;fillColor=none;top=0;left=0;bottom=0;right=0;overflow=hidden;rounded=0;labelBorderColor=none;sketch=0;strokeColor=#000000;fontColor=#000000;" vertex="1" parent="MP-l0ZCnCXrRXzi3BT9l-10">
                    <mxGeometry width="105" height="27" as="geometry">
                        <mxRectangle width="105" height="27" as="alternateBounds"/>
                    </mxGeometry>
                </mxCell>
                <mxCell id="MP-l0ZCnCXrRXzi3BT9l-12" value="true" style="shape=partialRectangle;html=1;whiteSpace=wrap;connectable=0;fillColor=none;top=0;left=0;bottom=0;right=0;overflow=hidden;rounded=0;labelBorderColor=none;sketch=0;strokeColor=#000000;fontColor=#000000;" vertex="1" parent="MP-l0ZCnCXrRXzi3BT9l-10">
                    <mxGeometry x="105" width="104" height="27" as="geometry">
                        <mxRectangle width="104" height="27" as="alternateBounds"/>
                    </mxGeometry>
                </mxCell>
                <mxCell id="k9duDoh2DvghU8b0hZFh-39" value="" style="endArrow=classic;html=1;strokeColor=#d79b00;fontColor=#000000;fillColor=#ffcd28;strokeWidth=2;gradientColor=#ffa500;entryX=0;entryY=0.25;entryDx=0;entryDy=0;exitX=1;exitY=0.5;exitDx=0;exitDy=0;" edge="1" parent="k9duDoh2DvghU8b0hZFh-1" source="k9duDoh2DvghU8b0hZFh-9" target="k9duDoh2DvghU8b0hZFh-12">
                    <mxGeometry width="50" height="50" relative="1" as="geometry">
                        <mxPoint x="-36" y="83" as="sourcePoint"/>
                        <mxPoint x="142" y="-40" as="targetPoint"/>
                    </mxGeometry>
                </mxCell>
                <mxCell id="k9duDoh2DvghU8b0hZFh-40" value="" style="endArrow=classic;html=1;strokeColor=#d79b00;fontColor=#000000;fillColor=#ffcd28;strokeWidth=2;entryX=0;entryY=0.25;entryDx=0;entryDy=0;gradientColor=#ffa500;" edge="1" parent="k9duDoh2DvghU8b0hZFh-1" target="k9duDoh2DvghU8b0hZFh-12">
                    <mxGeometry width="50" height="50" relative="1" as="geometry">
                        <mxPoint x="-17" y="142" as="sourcePoint"/>
                        <mxPoint x="136" y="-14" as="targetPoint"/>
                    </mxGeometry>
                </mxCell>
                <mxCell id="k9duDoh2DvghU8b0hZFh-41" value="" style="endArrow=classic;html=1;strokeColor=#d79b00;fontColor=#000000;fillColor=#ffcd28;strokeWidth=2;entryX=0;entryY=0.25;entryDx=0;entryDy=0;gradientColor=#ffa500;exitX=1;exitY=0.5;exitDx=0;exitDy=0;" edge="1" parent="k9duDoh2DvghU8b0hZFh-1" source="k9duDoh2DvghU8b0hZFh-30" target="k9duDoh2DvghU8b0hZFh-12">
                    <mxGeometry width="50" height="50" relative="1" as="geometry">
                        <mxPoint x="-33" y="450" as="sourcePoint"/>
                        <mxPoint x="142" y="163" as="targetPoint"/>
                    </mxGeometry>
                </mxCell>
                <mxCell id="k9duDoh2DvghU8b0hZFh-42" value="" style="edgeStyle=elbowEdgeStyle;elbow=vertical;endArrow=classic;html=1;curved=0;rounded=0;endSize=8;startSize=8;strokeColor=#d79b00;strokeWidth=2;fontColor=#000000;fillColor=#ffcd28;gradientColor=#ffa500;" edge="1" parent="k9duDoh2DvghU8b0hZFh-1">
                    <mxGeometry width="50" height="50" relative="1" as="geometry">
                        <mxPoint x="294" y="-3" as="sourcePoint"/>
                        <mxPoint x="-65" y="-53" as="targetPoint"/>
                        <Array as="points">
                            <mxPoint x="109" y="-93"/>
                        </Array>
                    </mxGeometry>
                </mxCell>
                <mxCell id="k9duDoh2DvghU8b0hZFh-43" value="[[prototype]]" style="shape=partialRectangle;html=1;whiteSpace=wrap;connectable=0;fillColor=none;top=0;left=0;bottom=0;right=0;overflow=hidden;rounded=0;labelBorderColor=none;sketch=0;strokeColor=#000000;fontColor=#000000;" vertex="1" parent="k9duDoh2DvghU8b0hZFh-1">
                    <mxGeometry x="-228" y="129" width="105" height="31" as="geometry">
                        <mxRectangle width="105" height="31" as="alternateBounds"/>
                    </mxGeometry>
                </mxCell>
                <mxCell id="k9duDoh2DvghU8b0hZFh-44" value="0xa00" style="shape=partialRectangle;html=1;whiteSpace=wrap;connectable=0;fillColor=none;top=0;left=0;bottom=0;right=0;overflow=hidden;rounded=0;labelBorderColor=none;sketch=0;strokeColor=#000000;fontColor=#000000;" vertex="1" parent="k9duDoh2DvghU8b0hZFh-1">
                    <mxGeometry x="-121" y="129" width="105" height="31" as="geometry">
                        <mxRectangle width="105" height="31" as="alternateBounds"/>
                    </mxGeometry>
                </mxCell>
                <mxCell id="k9duDoh2DvghU8b0hZFh-45" value="堆内存" style="shape=partialRectangle;html=1;whiteSpace=wrap;connectable=0;fillColor=none;top=0;left=0;bottom=0;right=0;overflow=hidden;rounded=0;labelBorderColor=none;sketch=0;strokeColor=default;fontColor=#000000;" vertex="1" parent="k9duDoh2DvghU8b0hZFh-1">
                    <mxGeometry x="8" y="-146" width="104" height="40" as="geometry">
                        <mxRectangle width="104" height="40" as="alternateBounds"/>
                    </mxGeometry>
                </mxCell>
                <mxCell id="k9duDoh2DvghU8b0hZFh-46" value="running函数对象&#10;0xb00" style="shape=table;startSize=30;container=1;collapsible=0;childLayout=tableLayout;fontStyle=1;align=center;rounded=0;labelBorderColor=none;sketch=0;strokeColor=#000000;fontColor=#000000;fillColor=none;" vertex="1" parent="k9duDoh2DvghU8b0hZFh-1">
                    <mxGeometry x="142" y="183" width="213" height="91" as="geometry"/>
                </mxCell>
                <mxCell id="k9duDoh2DvghU8b0hZFh-47" value="" style="shape=tableRow;horizontal=0;startSize=0;swimlaneHead=0;swimlaneBody=0;top=0;left=0;bottom=0;right=0;collapsible=0;dropTarget=0;fillColor=none;points=[[0,0.5],[1,0.5]];portConstraint=eastwest;rounded=0;labelBorderColor=#000000;sketch=0;strokeColor=#000000;fontColor=#000000;" vertex="1" parent="k9duDoh2DvghU8b0hZFh-46">
                    <mxGeometry y="30" width="213" height="31" as="geometry"/>
                </mxCell>
                <mxCell id="k9duDoh2DvghU8b0hZFh-48" value="name" style="shape=partialRectangle;html=1;whiteSpace=wrap;connectable=0;fillColor=none;top=0;left=0;bottom=0;right=0;overflow=hidden;rounded=0;labelBorderColor=none;sketch=0;strokeColor=default;fontColor=#000000;" vertex="1" parent="k9duDoh2DvghU8b0hZFh-47">
                    <mxGeometry width="107" height="31" as="geometry">
                        <mxRectangle width="107" height="31" as="alternateBounds"/>
                    </mxGeometry>
                </mxCell>
                <mxCell id="k9duDoh2DvghU8b0hZFh-49" value="''（匿名函数）" style="shape=partialRectangle;html=1;whiteSpace=wrap;connectable=0;fillColor=none;top=0;left=0;bottom=0;right=0;overflow=hidden;rounded=0;labelBorderColor=none;sketch=0;strokeColor=#000000;fontColor=#000000;" vertex="1" parent="k9duDoh2DvghU8b0hZFh-47">
                    <mxGeometry x="107" width="106" height="31" as="geometry">
                        <mxRectangle width="106" height="31" as="alternateBounds"/>
                    </mxGeometry>
                </mxCell>
                <mxCell id="k9duDoh2DvghU8b0hZFh-50" value="" style="shape=tableRow;horizontal=0;startSize=0;swimlaneHead=0;swimlaneBody=0;top=0;left=0;bottom=0;right=0;collapsible=0;dropTarget=0;fillColor=none;points=[[0,0.5],[1,0.5]];portConstraint=eastwest;rounded=0;labelBorderColor=#000000;sketch=0;strokeColor=#000000;fontColor=#000000;" vertex="1" parent="k9duDoh2DvghU8b0hZFh-46">
                    <mxGeometry y="61" width="213" height="30" as="geometry"/>
                </mxCell>
                <mxCell id="k9duDoh2DvghU8b0hZFh-51" value="length" style="shape=partialRectangle;html=1;whiteSpace=wrap;connectable=0;fillColor=none;top=0;left=0;bottom=0;right=0;overflow=hidden;rounded=0;labelBorderColor=none;sketch=0;strokeColor=default;fontColor=#000000;" vertex="1" parent="k9duDoh2DvghU8b0hZFh-50">
                    <mxGeometry width="107" height="30" as="geometry">
                        <mxRectangle width="107" height="30" as="alternateBounds"/>
                    </mxGeometry>
                </mxCell>
                <mxCell id="k9duDoh2DvghU8b0hZFh-52" value="0" style="shape=partialRectangle;html=1;whiteSpace=wrap;connectable=0;fillColor=none;top=0;left=0;bottom=0;right=0;overflow=hidden;rounded=0;labelBorderColor=none;sketch=0;strokeColor=#000000;fontColor=#000000;" vertex="1" parent="k9duDoh2DvghU8b0hZFh-50">
                    <mxGeometry x="107" width="106" height="30" as="geometry">
                        <mxRectangle width="106" height="30" as="alternateBounds"/>
                    </mxGeometry>
                </mxCell>
                <mxCell id="MP-l0ZCnCXrRXzi3BT9l-3" value="" style="edgeStyle=elbowEdgeStyle;elbow=horizontal;endArrow=classic;html=1;curved=0;rounded=0;endSize=8;startSize=8;strokeColor=#d79b00;strokeWidth=2;fontColor=#000000;exitX=1;exitY=0.5;exitDx=0;exitDy=0;fillColor=#ffcd28;gradientColor=#ffa500;entryX=1.022;entryY=0.169;entryDx=0;entryDy=0;entryPerimeter=0;" edge="1" parent="k9duDoh2DvghU8b0hZFh-1" source="k9duDoh2DvghU8b0hZFh-16" target="k9duDoh2DvghU8b0hZFh-46">
                    <mxGeometry width="50" height="50" relative="1" as="geometry">
                        <mxPoint x="38" y="148" as="sourcePoint"/>
                        <mxPoint x="359" y="132" as="targetPoint"/>
                        <Array as="points">
                            <mxPoint x="414" y="82"/>
                        </Array>
                    </mxGeometry>
                </mxCell>
            </root>
        </mxGraphModel>
    </diagram>
    <diagram name="修改属性的值并获取" id="xrJ0O-csI9EKWGMC2EuA">
        <mxGraphModel dx="1579" dy="1061" grid="0" gridSize="10" guides="1" tooltips="1" connect="1" arrows="1" fold="1" page="0" pageScale="1" pageWidth="1169" pageHeight="1654" background="#ffffff" math="0" shadow="0">
            <root>
                <mxCell id="HF1zRCrPCvzDqnHyNrQT-0"/>
                <mxCell id="HF1zRCrPCvzDqnHyNrQT-1" parent="HF1zRCrPCvzDqnHyNrQT-0"/>
                <mxCell id="HF1zRCrPCvzDqnHyNrQT-2" value="函数对象：function Person () {}&#10;0x100" style="shape=table;startSize=30;container=1;collapsible=0;childLayout=tableLayout;fontStyle=1;align=center;rounded=0;labelBorderColor=none;sketch=0;strokeColor=#000000;fontColor=#000000;fillColor=none;" vertex="1" parent="HF1zRCrPCvzDqnHyNrQT-1">
                    <mxGeometry x="-228" y="-46" width="210" height="120" as="geometry"/>
                </mxCell>
                <mxCell id="HF1zRCrPCvzDqnHyNrQT-3" value="" style="shape=tableRow;horizontal=0;startSize=0;swimlaneHead=0;swimlaneBody=0;top=0;left=0;bottom=0;right=0;collapsible=0;dropTarget=0;fillColor=none;points=[[0,0.5],[1,0.5]];portConstraint=eastwest;rounded=0;labelBorderColor=#000000;sketch=0;strokeColor=#000000;fontColor=#000000;" vertex="1" parent="HF1zRCrPCvzDqnHyNrQT-2">
                    <mxGeometry y="30" width="210" height="30" as="geometry"/>
                </mxCell>
                <mxCell id="HF1zRCrPCvzDqnHyNrQT-4" value="name" style="shape=partialRectangle;html=1;whiteSpace=wrap;connectable=0;fillColor=none;top=0;left=0;bottom=0;right=0;overflow=hidden;rounded=0;labelBorderColor=none;sketch=0;strokeColor=default;fontColor=#000000;" vertex="1" parent="HF1zRCrPCvzDqnHyNrQT-3">
                    <mxGeometry width="106" height="30" as="geometry">
                        <mxRectangle width="106" height="30" as="alternateBounds"/>
                    </mxGeometry>
                </mxCell>
                <mxCell id="HF1zRCrPCvzDqnHyNrQT-5" value="'Person'" style="shape=partialRectangle;html=1;whiteSpace=wrap;connectable=0;fillColor=none;top=0;left=0;bottom=0;right=0;overflow=hidden;rounded=0;labelBorderColor=none;sketch=0;strokeColor=#000000;fontColor=#000000;" vertex="1" parent="HF1zRCrPCvzDqnHyNrQT-3">
                    <mxGeometry x="106" width="104" height="30" as="geometry">
                        <mxRectangle width="104" height="30" as="alternateBounds"/>
                    </mxGeometry>
                </mxCell>
                <mxCell id="HF1zRCrPCvzDqnHyNrQT-6" value="" style="shape=tableRow;horizontal=0;startSize=0;swimlaneHead=0;swimlaneBody=0;top=0;left=0;bottom=0;right=0;collapsible=0;dropTarget=0;fillColor=none;points=[[0,0.5],[1,0.5]];portConstraint=eastwest;rounded=0;labelBorderColor=none;sketch=0;strokeColor=#000000;fontColor=#000000;labelBackgroundColor=default;" vertex="1" parent="HF1zRCrPCvzDqnHyNrQT-2">
                    <mxGeometry y="60" width="210" height="30" as="geometry"/>
                </mxCell>
                <mxCell id="HF1zRCrPCvzDqnHyNrQT-7" value="length" style="shape=partialRectangle;html=1;whiteSpace=wrap;connectable=0;fillColor=none;top=0;left=0;bottom=0;right=0;overflow=hidden;rounded=0;labelBorderColor=none;sketch=0;strokeColor=#000000;fontColor=#000000;" vertex="1" parent="HF1zRCrPCvzDqnHyNrQT-6">
                    <mxGeometry width="106" height="30" as="geometry">
                        <mxRectangle width="106" height="30" as="alternateBounds"/>
                    </mxGeometry>
                </mxCell>
                <mxCell id="HF1zRCrPCvzDqnHyNrQT-8" value="2" style="shape=partialRectangle;html=1;whiteSpace=wrap;connectable=0;fillColor=none;top=0;left=0;bottom=0;right=0;overflow=hidden;rounded=0;labelBorderColor=none;sketch=0;strokeColor=#000000;fontColor=#000000;" vertex="1" parent="HF1zRCrPCvzDqnHyNrQT-6">
                    <mxGeometry x="106" width="104" height="30" as="geometry">
                        <mxRectangle width="104" height="30" as="alternateBounds"/>
                    </mxGeometry>
                </mxCell>
                <mxCell id="HF1zRCrPCvzDqnHyNrQT-9" value="" style="shape=tableRow;horizontal=0;startSize=0;swimlaneHead=0;swimlaneBody=0;top=0;left=0;bottom=0;right=0;collapsible=0;dropTarget=0;fillColor=none;points=[[0,0.5],[1,0.5]];portConstraint=eastwest;rounded=0;labelBorderColor=#000000;sketch=0;strokeColor=#000000;fontColor=#000000;" vertex="1" parent="HF1zRCrPCvzDqnHyNrQT-2">
                    <mxGeometry y="90" width="210" height="30" as="geometry"/>
                </mxCell>
                <mxCell id="HF1zRCrPCvzDqnHyNrQT-10" value="prototype" style="shape=partialRectangle;html=1;whiteSpace=wrap;connectable=0;fillColor=none;top=0;left=0;bottom=0;right=0;overflow=hidden;rounded=0;labelBorderColor=none;sketch=0;strokeColor=#000000;fontColor=#000000;" vertex="1" parent="HF1zRCrPCvzDqnHyNrQT-9">
                    <mxGeometry width="106" height="30" as="geometry">
                        <mxRectangle width="106" height="30" as="alternateBounds"/>
                    </mxGeometry>
                </mxCell>
                <mxCell id="HF1zRCrPCvzDqnHyNrQT-11" value="0xa00" style="shape=partialRectangle;html=1;whiteSpace=wrap;connectable=0;fillColor=none;top=0;left=0;bottom=0;right=0;overflow=hidden;rounded=0;labelBorderColor=none;sketch=0;strokeColor=#000000;fontColor=#000000;" vertex="1" parent="HF1zRCrPCvzDqnHyNrQT-9">
                    <mxGeometry x="106" width="104" height="30" as="geometry">
                        <mxRectangle width="104" height="30" as="alternateBounds"/>
                    </mxGeometry>
                </mxCell>
                <mxCell id="HF1zRCrPCvzDqnHyNrQT-12" value="Person显示原型对象&#10;0xa00" style="shape=table;startSize=30;container=1;collapsible=0;childLayout=tableLayout;fontStyle=1;align=center;rounded=0;labelBorderColor=none;sketch=0;strokeColor=#000000;fontColor=#000000;fillColor=none;" vertex="1" parent="HF1zRCrPCvzDqnHyNrQT-1">
                    <mxGeometry x="142" y="-44" width="209" height="156" as="geometry"/>
                </mxCell>
                <mxCell id="HF1zRCrPCvzDqnHyNrQT-13" value="" style="shape=tableRow;horizontal=0;startSize=0;swimlaneHead=0;swimlaneBody=0;top=0;left=0;bottom=0;right=0;collapsible=0;dropTarget=0;fillColor=none;points=[[0,0.5],[1,0.5]];portConstraint=eastwest;rounded=0;labelBorderColor=#000000;sketch=0;strokeColor=#000000;fontColor=#000000;" vertex="1" parent="HF1zRCrPCvzDqnHyNrQT-12">
                    <mxGeometry y="30" width="209" height="32" as="geometry"/>
                </mxCell>
                <mxCell id="HF1zRCrPCvzDqnHyNrQT-14" value="constructor" style="shape=partialRectangle;html=1;whiteSpace=wrap;connectable=0;fillColor=none;top=0;left=0;bottom=0;right=0;overflow=hidden;rounded=0;labelBorderColor=none;sketch=0;strokeColor=default;fontColor=#000000;" vertex="1" parent="HF1zRCrPCvzDqnHyNrQT-13">
                    <mxGeometry width="105" height="32" as="geometry">
                        <mxRectangle width="105" height="32" as="alternateBounds"/>
                    </mxGeometry>
                </mxCell>
                <mxCell id="HF1zRCrPCvzDqnHyNrQT-15" value="0x100" style="shape=partialRectangle;html=1;whiteSpace=wrap;connectable=0;fillColor=none;top=0;left=0;bottom=0;right=0;overflow=hidden;rounded=0;labelBorderColor=none;sketch=0;strokeColor=#000000;fontColor=#000000;" vertex="1" parent="HF1zRCrPCvzDqnHyNrQT-13">
                    <mxGeometry x="105" width="104" height="32" as="geometry">
                        <mxRectangle width="104" height="32" as="alternateBounds"/>
                    </mxGeometry>
                </mxCell>
                <mxCell id="HF1zRCrPCvzDqnHyNrQT-16" value="" style="shape=tableRow;horizontal=0;startSize=0;swimlaneHead=0;swimlaneBody=0;top=0;left=0;bottom=0;right=0;collapsible=0;dropTarget=0;fillColor=none;points=[[0,0.5],[1,0.5]];portConstraint=eastwest;rounded=0;labelBorderColor=#000000;sketch=0;strokeColor=#000000;fontColor=#000000;" vertex="1" parent="HF1zRCrPCvzDqnHyNrQT-12">
                    <mxGeometry y="62" width="209" height="30" as="geometry"/>
                </mxCell>
                <mxCell id="HF1zRCrPCvzDqnHyNrQT-17" value="running" style="shape=partialRectangle;html=1;whiteSpace=wrap;connectable=0;fillColor=none;top=0;left=0;bottom=0;right=0;overflow=hidden;rounded=0;labelBorderColor=none;sketch=0;strokeColor=default;fontColor=#000000;" vertex="1" parent="HF1zRCrPCvzDqnHyNrQT-16">
                    <mxGeometry width="105" height="30" as="geometry">
                        <mxRectangle width="105" height="30" as="alternateBounds"/>
                    </mxGeometry>
                </mxCell>
                <mxCell id="HF1zRCrPCvzDqnHyNrQT-18" value="0xb00" style="shape=partialRectangle;html=1;whiteSpace=wrap;connectable=0;fillColor=none;top=0;left=0;bottom=0;right=0;overflow=hidden;rounded=0;labelBorderColor=none;sketch=0;strokeColor=#000000;fontColor=#000000;" vertex="1" parent="HF1zRCrPCvzDqnHyNrQT-16">
                    <mxGeometry x="105" width="104" height="30" as="geometry">
                        <mxRectangle width="104" height="30" as="alternateBounds"/>
                    </mxGeometry>
                </mxCell>
                <mxCell id="HF1zRCrPCvzDqnHyNrQT-19" value="" style="shape=tableRow;horizontal=0;startSize=0;swimlaneHead=0;swimlaneBody=0;top=0;left=0;bottom=0;right=0;collapsible=0;dropTarget=0;fillColor=none;points=[[0,0.5],[1,0.5]];portConstraint=eastwest;rounded=0;labelBorderColor=#000000;sketch=0;strokeColor=#000000;fontColor=#000000;" vertex="1" parent="HF1zRCrPCvzDqnHyNrQT-12">
                    <mxGeometry y="92" width="209" height="32" as="geometry"/>
                </mxCell>
                <mxCell id="HF1zRCrPCvzDqnHyNrQT-20" value="address" style="shape=partialRectangle;html=1;whiteSpace=wrap;connectable=0;fillColor=none;top=0;left=0;bottom=0;right=0;overflow=hidden;rounded=0;labelBorderColor=none;sketch=0;strokeColor=default;fontColor=#000000;" vertex="1" parent="HF1zRCrPCvzDqnHyNrQT-19">
                    <mxGeometry width="105" height="32" as="geometry">
                        <mxRectangle width="105" height="32" as="alternateBounds"/>
                    </mxGeometry>
                </mxCell>
                <mxCell id="HF1zRCrPCvzDqnHyNrQT-21" value="中国" style="shape=partialRectangle;html=1;whiteSpace=wrap;connectable=0;fillColor=none;top=0;left=0;bottom=0;right=0;overflow=hidden;rounded=0;labelBorderColor=none;sketch=0;strokeColor=#000000;fontColor=#000000;" vertex="1" parent="HF1zRCrPCvzDqnHyNrQT-19">
                    <mxGeometry x="105" width="104" height="32" as="geometry">
                        <mxRectangle width="104" height="32" as="alternateBounds"/>
                    </mxGeometry>
                </mxCell>
                <mxCell id="HF1zRCrPCvzDqnHyNrQT-22" value="" style="shape=tableRow;horizontal=0;startSize=0;swimlaneHead=0;swimlaneBody=0;top=0;left=0;bottom=0;right=0;collapsible=0;dropTarget=0;fillColor=none;points=[[0,0.5],[1,0.5]];portConstraint=eastwest;rounded=0;labelBorderColor=#000000;sketch=0;strokeColor=#000000;fontColor=#000000;" vertex="1" parent="HF1zRCrPCvzDqnHyNrQT-12">
                    <mxGeometry y="124" width="209" height="32" as="geometry"/>
                </mxCell>
                <mxCell id="HF1zRCrPCvzDqnHyNrQT-23" value="info" style="shape=partialRectangle;html=1;whiteSpace=wrap;connectable=0;fillColor=none;top=0;left=0;bottom=0;right=0;overflow=hidden;rounded=0;labelBorderColor=none;sketch=0;strokeColor=default;fontColor=#000000;" vertex="1" parent="HF1zRCrPCvzDqnHyNrQT-22">
                    <mxGeometry width="105" height="32" as="geometry">
                        <mxRectangle width="105" height="32" as="alternateBounds"/>
                    </mxGeometry>
                </mxCell>
                <mxCell id="HF1zRCrPCvzDqnHyNrQT-24" value="卷王" style="shape=partialRectangle;html=1;whiteSpace=wrap;connectable=0;fillColor=none;top=0;left=0;bottom=0;right=0;overflow=hidden;rounded=0;labelBorderColor=none;sketch=0;strokeColor=#000000;fontColor=#000000;" vertex="1" parent="HF1zRCrPCvzDqnHyNrQT-22">
                    <mxGeometry x="105" width="104" height="32" as="geometry">
                        <mxRectangle width="104" height="32" as="alternateBounds"/>
                    </mxGeometry>
                </mxCell>
                <mxCell id="HF1zRCrPCvzDqnHyNrQT-25" value="实例对象：p1&#10;0x200" style="shape=table;startSize=30;container=1;collapsible=0;childLayout=tableLayout;fontStyle=1;align=center;rounded=0;labelBorderColor=none;sketch=0;strokeColor=#000000;fontColor=#000000;fillColor=none;" vertex="1" parent="HF1zRCrPCvzDqnHyNrQT-1">
                    <mxGeometry x="-226.5" y="97" width="209.5" height="179" as="geometry"/>
                </mxCell>
                <mxCell id="HF1zRCrPCvzDqnHyNrQT-26" style="shape=tableRow;horizontal=0;startSize=0;swimlaneHead=0;swimlaneBody=0;top=0;left=0;bottom=0;right=0;collapsible=0;dropTarget=0;fillColor=none;points=[[0,0.5],[1,0.5]];portConstraint=eastwest;rounded=0;labelBorderColor=#000000;sketch=0;strokeColor=#000000;fontColor=#000000;" vertex="1" parent="HF1zRCrPCvzDqnHyNrQT-25">
                    <mxGeometry y="30" width="209.5" height="31" as="geometry"/>
                </mxCell>
                <mxCell id="HF1zRCrPCvzDqnHyNrQT-27" style="shape=partialRectangle;html=1;whiteSpace=wrap;connectable=0;fillColor=none;top=0;left=0;bottom=0;right=0;overflow=hidden;rounded=0;labelBorderColor=none;sketch=0;strokeColor=default;fontColor=#000000;" vertex="1" parent="HF1zRCrPCvzDqnHyNrQT-26">
                    <mxGeometry width="105" height="31" as="geometry">
                        <mxRectangle width="105" height="31" as="alternateBounds"/>
                    </mxGeometry>
                </mxCell>
                <mxCell id="HF1zRCrPCvzDqnHyNrQT-28" style="shape=partialRectangle;html=1;whiteSpace=wrap;connectable=0;fillColor=none;top=0;left=0;bottom=0;right=0;overflow=hidden;rounded=0;labelBorderColor=none;sketch=0;strokeColor=#000000;fontColor=#000000;" vertex="1" parent="HF1zRCrPCvzDqnHyNrQT-26">
                    <mxGeometry x="105" width="105" height="31" as="geometry">
                        <mxRectangle width="105" height="31" as="alternateBounds"/>
                    </mxGeometry>
                </mxCell>
                <mxCell id="HF1zRCrPCvzDqnHyNrQT-29" value="" style="shape=tableRow;horizontal=0;startSize=0;swimlaneHead=0;swimlaneBody=0;top=0;left=0;bottom=0;right=0;collapsible=0;dropTarget=0;fillColor=none;points=[[0,0.5],[1,0.5]];portConstraint=eastwest;rounded=0;labelBorderColor=#000000;sketch=0;strokeColor=#000000;fontColor=#000000;" vertex="1" parent="HF1zRCrPCvzDqnHyNrQT-25">
                    <mxGeometry y="61" width="209.5" height="31" as="geometry"/>
                </mxCell>
                <mxCell id="HF1zRCrPCvzDqnHyNrQT-30" value="name" style="shape=partialRectangle;html=1;whiteSpace=wrap;connectable=0;fillColor=none;top=0;left=0;bottom=0;right=0;overflow=hidden;rounded=0;labelBorderColor=none;sketch=0;strokeColor=default;fontColor=#000000;" vertex="1" parent="HF1zRCrPCvzDqnHyNrQT-29">
                    <mxGeometry width="105" height="31" as="geometry">
                        <mxRectangle width="105" height="31" as="alternateBounds"/>
                    </mxGeometry>
                </mxCell>
                <mxCell id="HF1zRCrPCvzDqnHyNrQT-31" value="'why'" style="shape=partialRectangle;html=1;whiteSpace=wrap;connectable=0;fillColor=none;top=0;left=0;bottom=0;right=0;overflow=hidden;rounded=0;labelBorderColor=none;sketch=0;strokeColor=#000000;fontColor=#000000;" vertex="1" parent="HF1zRCrPCvzDqnHyNrQT-29">
                    <mxGeometry x="105" width="105" height="31" as="geometry">
                        <mxRectangle width="105" height="31" as="alternateBounds"/>
                    </mxGeometry>
                </mxCell>
                <mxCell id="HF1zRCrPCvzDqnHyNrQT-32" value="" style="shape=tableRow;horizontal=0;startSize=0;swimlaneHead=0;swimlaneBody=0;top=0;left=0;bottom=0;right=0;collapsible=0;dropTarget=0;fillColor=none;points=[[0,0.5],[1,0.5]];portConstraint=eastwest;rounded=0;labelBorderColor=none;sketch=0;strokeColor=#000000;fontColor=#000000;labelBackgroundColor=default;" vertex="1" parent="HF1zRCrPCvzDqnHyNrQT-25">
                    <mxGeometry y="92" width="209.5" height="29" as="geometry"/>
                </mxCell>
                <mxCell id="HF1zRCrPCvzDqnHyNrQT-33" value="age" style="shape=partialRectangle;html=1;whiteSpace=wrap;connectable=0;fillColor=none;top=0;left=0;bottom=0;right=0;overflow=hidden;rounded=0;labelBorderColor=none;sketch=0;strokeColor=#000000;fontColor=#000000;" vertex="1" parent="HF1zRCrPCvzDqnHyNrQT-32">
                    <mxGeometry width="105" height="29" as="geometry">
                        <mxRectangle width="105" height="29" as="alternateBounds"/>
                    </mxGeometry>
                </mxCell>
                <mxCell id="HF1zRCrPCvzDqnHyNrQT-34" value="18" style="shape=partialRectangle;html=1;whiteSpace=wrap;connectable=0;fillColor=none;top=0;left=0;bottom=0;right=0;overflow=hidden;rounded=0;labelBorderColor=none;sketch=0;strokeColor=#000000;fontColor=#000000;" vertex="1" parent="HF1zRCrPCvzDqnHyNrQT-32">
                    <mxGeometry x="105" width="105" height="29" as="geometry">
                        <mxRectangle width="105" height="29" as="alternateBounds"/>
                    </mxGeometry>
                </mxCell>
                <mxCell id="HF1zRCrPCvzDqnHyNrQT-35" value="" style="shape=tableRow;horizontal=0;startSize=0;swimlaneHead=0;swimlaneBody=0;top=0;left=0;bottom=0;right=0;collapsible=0;dropTarget=0;fillColor=none;points=[[0,0.5],[1,0.5]];portConstraint=eastwest;rounded=0;labelBorderColor=none;sketch=0;strokeColor=#000000;fontColor=#000000;labelBackgroundColor=default;" vertex="1" parent="HF1zRCrPCvzDqnHyNrQT-25">
                    <mxGeometry y="121" width="209.5" height="29" as="geometry"/>
                </mxCell>
                <mxCell id="HF1zRCrPCvzDqnHyNrQT-36" value="height" style="shape=partialRectangle;html=1;whiteSpace=wrap;connectable=0;fillColor=none;top=0;left=0;bottom=0;right=0;overflow=hidden;rounded=0;labelBorderColor=none;sketch=0;strokeColor=#000000;fontColor=#000000;" vertex="1" parent="HF1zRCrPCvzDqnHyNrQT-35">
                    <mxGeometry width="105" height="29" as="geometry">
                        <mxRectangle width="105" height="29" as="alternateBounds"/>
                    </mxGeometry>
                </mxCell>
                <mxCell id="HF1zRCrPCvzDqnHyNrQT-37" value="1.88" style="shape=partialRectangle;html=1;whiteSpace=wrap;connectable=0;fillColor=none;top=0;left=0;bottom=0;right=0;overflow=hidden;rounded=0;labelBorderColor=none;sketch=0;strokeColor=#000000;fontColor=#000000;" vertex="1" parent="HF1zRCrPCvzDqnHyNrQT-35">
                    <mxGeometry x="105" width="105" height="29" as="geometry">
                        <mxRectangle width="105" height="29" as="alternateBounds"/>
                    </mxGeometry>
                </mxCell>
                <mxCell id="L9T6K_f62cDt_aaK-uhK-0" value="" style="shape=tableRow;horizontal=0;startSize=0;swimlaneHead=0;swimlaneBody=0;top=0;left=0;bottom=0;right=0;collapsible=0;dropTarget=0;fillColor=none;points=[[0,0.5],[1,0.5]];portConstraint=eastwest;rounded=0;labelBorderColor=none;sketch=0;strokeColor=#000000;fontColor=#000000;labelBackgroundColor=default;" vertex="1" parent="HF1zRCrPCvzDqnHyNrQT-25">
                    <mxGeometry y="150" width="209.5" height="29" as="geometry"/>
                </mxCell>
                <mxCell id="L9T6K_f62cDt_aaK-uhK-1" value="address" style="shape=partialRectangle;html=1;whiteSpace=wrap;connectable=0;fillColor=none;top=0;left=0;bottom=0;right=0;overflow=hidden;rounded=0;labelBorderColor=none;sketch=0;strokeColor=#000000;fontColor=#000000;" vertex="1" parent="L9T6K_f62cDt_aaK-uhK-0">
                    <mxGeometry width="105" height="29" as="geometry">
                        <mxRectangle width="105" height="29" as="alternateBounds"/>
                    </mxGeometry>
                </mxCell>
                <mxCell id="L9T6K_f62cDt_aaK-uhK-2" value="银河" style="shape=partialRectangle;html=1;whiteSpace=wrap;connectable=0;fillColor=none;top=0;left=0;bottom=0;right=0;overflow=hidden;rounded=0;labelBorderColor=none;sketch=0;strokeColor=#000000;fontColor=#000000;" vertex="1" parent="L9T6K_f62cDt_aaK-uhK-0">
                    <mxGeometry x="105" width="105" height="29" as="geometry">
                        <mxRectangle width="105" height="29" as="alternateBounds"/>
                    </mxGeometry>
                </mxCell>
                <mxCell id="HF1zRCrPCvzDqnHyNrQT-38" value="实例对象：p2&#10;0x300" style="shape=table;startSize=30;container=1;collapsible=0;childLayout=tableLayout;fontStyle=1;align=center;rounded=0;labelBorderColor=none;sketch=0;strokeColor=#000000;fontColor=#000000;fillColor=none;" vertex="1" parent="HF1zRCrPCvzDqnHyNrQT-1">
                    <mxGeometry x="-225" y="300" width="209" height="140" as="geometry"/>
                </mxCell>
                <mxCell id="HF1zRCrPCvzDqnHyNrQT-39" value="" style="shape=tableRow;horizontal=0;startSize=0;swimlaneHead=0;swimlaneBody=0;top=0;left=0;bottom=0;right=0;collapsible=0;dropTarget=0;fillColor=none;points=[[0,0.5],[1,0.5]];portConstraint=eastwest;rounded=0;labelBorderColor=#000000;sketch=0;strokeColor=#000000;fontColor=#000000;" vertex="1" parent="HF1zRCrPCvzDqnHyNrQT-38">
                    <mxGeometry y="30" width="209" height="28" as="geometry"/>
                </mxCell>
                <mxCell id="HF1zRCrPCvzDqnHyNrQT-40" value="[[prototype]]" style="shape=partialRectangle;html=1;whiteSpace=wrap;connectable=0;fillColor=none;top=0;left=0;bottom=0;right=0;overflow=hidden;rounded=0;labelBorderColor=none;sketch=0;strokeColor=#000000;fontColor=#000000;" vertex="1" parent="HF1zRCrPCvzDqnHyNrQT-39">
                    <mxGeometry width="105" height="28" as="geometry">
                        <mxRectangle width="105" height="28" as="alternateBounds"/>
                    </mxGeometry>
                </mxCell>
                <mxCell id="HF1zRCrPCvzDqnHyNrQT-41" value="0xa00" style="shape=partialRectangle;html=1;whiteSpace=wrap;connectable=0;fillColor=none;top=0;left=0;bottom=0;right=0;overflow=hidden;rounded=0;labelBorderColor=none;sketch=0;strokeColor=#000000;fontColor=#000000;" vertex="1" parent="HF1zRCrPCvzDqnHyNrQT-39">
                    <mxGeometry x="105" width="104" height="28" as="geometry">
                        <mxRectangle width="104" height="28" as="alternateBounds"/>
                    </mxGeometry>
                </mxCell>
                <mxCell id="HF1zRCrPCvzDqnHyNrQT-42" value="" style="shape=tableRow;horizontal=0;startSize=0;swimlaneHead=0;swimlaneBody=0;top=0;left=0;bottom=0;right=0;collapsible=0;dropTarget=0;fillColor=none;points=[[0,0.5],[1,0.5]];portConstraint=eastwest;rounded=0;labelBorderColor=#000000;sketch=0;strokeColor=#000000;fontColor=#000000;" vertex="1" parent="HF1zRCrPCvzDqnHyNrQT-38">
                    <mxGeometry y="58" width="209" height="28" as="geometry"/>
                </mxCell>
                <mxCell id="HF1zRCrPCvzDqnHyNrQT-43" value="name" style="shape=partialRectangle;html=1;whiteSpace=wrap;connectable=0;fillColor=none;top=0;left=0;bottom=0;right=0;overflow=hidden;rounded=0;labelBorderColor=none;sketch=0;strokeColor=default;fontColor=#000000;" vertex="1" parent="HF1zRCrPCvzDqnHyNrQT-42">
                    <mxGeometry width="105" height="28" as="geometry">
                        <mxRectangle width="105" height="28" as="alternateBounds"/>
                    </mxGeometry>
                </mxCell>
                <mxCell id="HF1zRCrPCvzDqnHyNrQT-44" value="'why1'" style="shape=partialRectangle;html=1;whiteSpace=wrap;connectable=0;fillColor=none;top=0;left=0;bottom=0;right=0;overflow=hidden;rounded=0;labelBorderColor=none;sketch=0;strokeColor=#000000;fontColor=#000000;" vertex="1" parent="HF1zRCrPCvzDqnHyNrQT-42">
                    <mxGeometry x="105" width="104" height="28" as="geometry">
                        <mxRectangle width="104" height="28" as="alternateBounds"/>
                    </mxGeometry>
                </mxCell>
                <mxCell id="HF1zRCrPCvzDqnHyNrQT-45" value="" style="shape=tableRow;horizontal=0;startSize=0;swimlaneHead=0;swimlaneBody=0;top=0;left=0;bottom=0;right=0;collapsible=0;dropTarget=0;fillColor=none;points=[[0,0.5],[1,0.5]];portConstraint=eastwest;rounded=0;labelBorderColor=none;sketch=0;strokeColor=#000000;fontColor=#000000;labelBackgroundColor=default;" vertex="1" parent="HF1zRCrPCvzDqnHyNrQT-38">
                    <mxGeometry y="86" width="209" height="27" as="geometry"/>
                </mxCell>
                <mxCell id="HF1zRCrPCvzDqnHyNrQT-46" value="age" style="shape=partialRectangle;html=1;whiteSpace=wrap;connectable=0;fillColor=none;top=0;left=0;bottom=0;right=0;overflow=hidden;rounded=0;labelBorderColor=none;sketch=0;strokeColor=#000000;fontColor=#000000;" vertex="1" parent="HF1zRCrPCvzDqnHyNrQT-45">
                    <mxGeometry width="105" height="27" as="geometry">
                        <mxRectangle width="105" height="27" as="alternateBounds"/>
                    </mxGeometry>
                </mxCell>
                <mxCell id="HF1zRCrPCvzDqnHyNrQT-47" value="19" style="shape=partialRectangle;html=1;whiteSpace=wrap;connectable=0;fillColor=none;top=0;left=0;bottom=0;right=0;overflow=hidden;rounded=0;labelBorderColor=none;sketch=0;strokeColor=#000000;fontColor=#000000;" vertex="1" parent="HF1zRCrPCvzDqnHyNrQT-45">
                    <mxGeometry x="105" width="104" height="27" as="geometry">
                        <mxRectangle width="104" height="27" as="alternateBounds"/>
                    </mxGeometry>
                </mxCell>
                <mxCell id="HF1zRCrPCvzDqnHyNrQT-48" value="" style="shape=tableRow;horizontal=0;startSize=0;swimlaneHead=0;swimlaneBody=0;top=0;left=0;bottom=0;right=0;collapsible=0;dropTarget=0;fillColor=none;points=[[0,0.5],[1,0.5]];portConstraint=eastwest;rounded=0;labelBorderColor=none;sketch=0;strokeColor=#000000;fontColor=#000000;labelBackgroundColor=default;" vertex="1" parent="HF1zRCrPCvzDqnHyNrQT-38">
                    <mxGeometry y="113" width="209" height="27" as="geometry"/>
                </mxCell>
                <mxCell id="HF1zRCrPCvzDqnHyNrQT-49" value="isAdmin" style="shape=partialRectangle;html=1;whiteSpace=wrap;connectable=0;fillColor=none;top=0;left=0;bottom=0;right=0;overflow=hidden;rounded=0;labelBorderColor=none;sketch=0;strokeColor=#000000;fontColor=#000000;" vertex="1" parent="HF1zRCrPCvzDqnHyNrQT-48">
                    <mxGeometry width="105" height="27" as="geometry">
                        <mxRectangle width="105" height="27" as="alternateBounds"/>
                    </mxGeometry>
                </mxCell>
                <mxCell id="HF1zRCrPCvzDqnHyNrQT-50" value="true" style="shape=partialRectangle;html=1;whiteSpace=wrap;connectable=0;fillColor=none;top=0;left=0;bottom=0;right=0;overflow=hidden;rounded=0;labelBorderColor=none;sketch=0;strokeColor=#000000;fontColor=#000000;" vertex="1" parent="HF1zRCrPCvzDqnHyNrQT-48">
                    <mxGeometry x="105" width="104" height="27" as="geometry">
                        <mxRectangle width="104" height="27" as="alternateBounds"/>
                    </mxGeometry>
                </mxCell>
                <mxCell id="HF1zRCrPCvzDqnHyNrQT-51" value="" style="endArrow=classic;html=1;strokeColor=#d79b00;fontColor=#000000;fillColor=#ffcd28;strokeWidth=2;gradientColor=#ffa500;entryX=0;entryY=0.25;entryDx=0;entryDy=0;exitX=1;exitY=0.5;exitDx=0;exitDy=0;" edge="1" parent="HF1zRCrPCvzDqnHyNrQT-1" source="HF1zRCrPCvzDqnHyNrQT-9" target="HF1zRCrPCvzDqnHyNrQT-12">
                    <mxGeometry width="50" height="50" relative="1" as="geometry">
                        <mxPoint x="-36" y="83" as="sourcePoint"/>
                        <mxPoint x="142" y="-40" as="targetPoint"/>
                    </mxGeometry>
                </mxCell>
                <mxCell id="HF1zRCrPCvzDqnHyNrQT-52" value="" style="endArrow=classic;html=1;strokeColor=#d79b00;fontColor=#000000;fillColor=#ffcd28;strokeWidth=2;entryX=0;entryY=0.25;entryDx=0;entryDy=0;gradientColor=#ffa500;" edge="1" parent="HF1zRCrPCvzDqnHyNrQT-1" target="HF1zRCrPCvzDqnHyNrQT-12">
                    <mxGeometry width="50" height="50" relative="1" as="geometry">
                        <mxPoint x="-17" y="142" as="sourcePoint"/>
                        <mxPoint x="136" y="-14" as="targetPoint"/>
                    </mxGeometry>
                </mxCell>
                <mxCell id="HF1zRCrPCvzDqnHyNrQT-53" value="" style="endArrow=classic;html=1;strokeColor=#d79b00;fontColor=#000000;fillColor=#ffcd28;strokeWidth=2;entryX=0;entryY=0.25;entryDx=0;entryDy=0;gradientColor=#ffa500;exitX=1;exitY=0.5;exitDx=0;exitDy=0;" edge="1" parent="HF1zRCrPCvzDqnHyNrQT-1" source="HF1zRCrPCvzDqnHyNrQT-39" target="HF1zRCrPCvzDqnHyNrQT-12">
                    <mxGeometry width="50" height="50" relative="1" as="geometry">
                        <mxPoint x="-33" y="450" as="sourcePoint"/>
                        <mxPoint x="142" y="163" as="targetPoint"/>
                    </mxGeometry>
                </mxCell>
                <mxCell id="HF1zRCrPCvzDqnHyNrQT-54" value="" style="edgeStyle=elbowEdgeStyle;elbow=vertical;endArrow=classic;html=1;curved=0;rounded=0;endSize=8;startSize=8;strokeColor=#d79b00;strokeWidth=2;fontColor=#000000;fillColor=#ffcd28;gradientColor=#ffa500;" edge="1" parent="HF1zRCrPCvzDqnHyNrQT-1">
                    <mxGeometry width="50" height="50" relative="1" as="geometry">
                        <mxPoint x="294" y="-3" as="sourcePoint"/>
                        <mxPoint x="-65" y="-53" as="targetPoint"/>
                        <Array as="points">
                            <mxPoint x="109" y="-93"/>
                        </Array>
                    </mxGeometry>
                </mxCell>
                <mxCell id="HF1zRCrPCvzDqnHyNrQT-55" value="[[prototype]]" style="shape=partialRectangle;html=1;whiteSpace=wrap;connectable=0;fillColor=none;top=0;left=0;bottom=0;right=0;overflow=hidden;rounded=0;labelBorderColor=none;sketch=0;strokeColor=#000000;fontColor=#000000;" vertex="1" parent="HF1zRCrPCvzDqnHyNrQT-1">
                    <mxGeometry x="-228" y="129" width="105" height="31" as="geometry">
                        <mxRectangle width="105" height="31" as="alternateBounds"/>
                    </mxGeometry>
                </mxCell>
                <mxCell id="HF1zRCrPCvzDqnHyNrQT-56" value="0xa00" style="shape=partialRectangle;html=1;whiteSpace=wrap;connectable=0;fillColor=none;top=0;left=0;bottom=0;right=0;overflow=hidden;rounded=0;labelBorderColor=none;sketch=0;strokeColor=#000000;fontColor=#000000;" vertex="1" parent="HF1zRCrPCvzDqnHyNrQT-1">
                    <mxGeometry x="-121" y="129" width="105" height="31" as="geometry">
                        <mxRectangle width="105" height="31" as="alternateBounds"/>
                    </mxGeometry>
                </mxCell>
                <mxCell id="HF1zRCrPCvzDqnHyNrQT-57" value="堆内存" style="shape=partialRectangle;html=1;whiteSpace=wrap;connectable=0;fillColor=none;top=0;left=0;bottom=0;right=0;overflow=hidden;rounded=0;labelBorderColor=none;sketch=0;strokeColor=default;fontColor=#000000;" vertex="1" parent="HF1zRCrPCvzDqnHyNrQT-1">
                    <mxGeometry x="8" y="-146" width="104" height="40" as="geometry">
                        <mxRectangle width="104" height="40" as="alternateBounds"/>
                    </mxGeometry>
                </mxCell>
                <mxCell id="HF1zRCrPCvzDqnHyNrQT-58" value="running函数对象&#10;0xb00" style="shape=table;startSize=30;container=1;collapsible=0;childLayout=tableLayout;fontStyle=1;align=center;rounded=0;labelBorderColor=none;sketch=0;strokeColor=#000000;fontColor=#000000;fillColor=none;" vertex="1" parent="HF1zRCrPCvzDqnHyNrQT-1">
                    <mxGeometry x="142" y="183" width="213" height="91" as="geometry"/>
                </mxCell>
                <mxCell id="HF1zRCrPCvzDqnHyNrQT-59" value="" style="shape=tableRow;horizontal=0;startSize=0;swimlaneHead=0;swimlaneBody=0;top=0;left=0;bottom=0;right=0;collapsible=0;dropTarget=0;fillColor=none;points=[[0,0.5],[1,0.5]];portConstraint=eastwest;rounded=0;labelBorderColor=#000000;sketch=0;strokeColor=#000000;fontColor=#000000;" vertex="1" parent="HF1zRCrPCvzDqnHyNrQT-58">
                    <mxGeometry y="30" width="213" height="31" as="geometry"/>
                </mxCell>
                <mxCell id="HF1zRCrPCvzDqnHyNrQT-60" value="name" style="shape=partialRectangle;html=1;whiteSpace=wrap;connectable=0;fillColor=none;top=0;left=0;bottom=0;right=0;overflow=hidden;rounded=0;labelBorderColor=none;sketch=0;strokeColor=default;fontColor=#000000;" vertex="1" parent="HF1zRCrPCvzDqnHyNrQT-59">
                    <mxGeometry width="107" height="31" as="geometry">
                        <mxRectangle width="107" height="31" as="alternateBounds"/>
                    </mxGeometry>
                </mxCell>
                <mxCell id="HF1zRCrPCvzDqnHyNrQT-61" value="''（匿名函数）" style="shape=partialRectangle;html=1;whiteSpace=wrap;connectable=0;fillColor=none;top=0;left=0;bottom=0;right=0;overflow=hidden;rounded=0;labelBorderColor=none;sketch=0;strokeColor=#000000;fontColor=#000000;" vertex="1" parent="HF1zRCrPCvzDqnHyNrQT-59">
                    <mxGeometry x="107" width="106" height="31" as="geometry">
                        <mxRectangle width="106" height="31" as="alternateBounds"/>
                    </mxGeometry>
                </mxCell>
                <mxCell id="HF1zRCrPCvzDqnHyNrQT-62" value="" style="shape=tableRow;horizontal=0;startSize=0;swimlaneHead=0;swimlaneBody=0;top=0;left=0;bottom=0;right=0;collapsible=0;dropTarget=0;fillColor=none;points=[[0,0.5],[1,0.5]];portConstraint=eastwest;rounded=0;labelBorderColor=#000000;sketch=0;strokeColor=#000000;fontColor=#000000;" vertex="1" parent="HF1zRCrPCvzDqnHyNrQT-58">
                    <mxGeometry y="61" width="213" height="30" as="geometry"/>
                </mxCell>
                <mxCell id="HF1zRCrPCvzDqnHyNrQT-63" value="length" style="shape=partialRectangle;html=1;whiteSpace=wrap;connectable=0;fillColor=none;top=0;left=0;bottom=0;right=0;overflow=hidden;rounded=0;labelBorderColor=none;sketch=0;strokeColor=default;fontColor=#000000;" vertex="1" parent="HF1zRCrPCvzDqnHyNrQT-62">
                    <mxGeometry width="107" height="30" as="geometry">
                        <mxRectangle width="107" height="30" as="alternateBounds"/>
                    </mxGeometry>
                </mxCell>
                <mxCell id="HF1zRCrPCvzDqnHyNrQT-64" value="0" style="shape=partialRectangle;html=1;whiteSpace=wrap;connectable=0;fillColor=none;top=0;left=0;bottom=0;right=0;overflow=hidden;rounded=0;labelBorderColor=none;sketch=0;strokeColor=#000000;fontColor=#000000;" vertex="1" parent="HF1zRCrPCvzDqnHyNrQT-62">
                    <mxGeometry x="107" width="106" height="30" as="geometry">
                        <mxRectangle width="106" height="30" as="alternateBounds"/>
                    </mxGeometry>
                </mxCell>
                <mxCell id="HF1zRCrPCvzDqnHyNrQT-65" value="" style="edgeStyle=elbowEdgeStyle;elbow=horizontal;endArrow=classic;html=1;curved=0;rounded=0;endSize=8;startSize=8;strokeColor=#d79b00;strokeWidth=2;fontColor=#000000;exitX=1;exitY=0.5;exitDx=0;exitDy=0;fillColor=#ffcd28;gradientColor=#ffa500;entryX=1.022;entryY=0.169;entryDx=0;entryDy=0;entryPerimeter=0;" edge="1" parent="HF1zRCrPCvzDqnHyNrQT-1" source="HF1zRCrPCvzDqnHyNrQT-16" target="HF1zRCrPCvzDqnHyNrQT-58">
                    <mxGeometry width="50" height="50" relative="1" as="geometry">
                        <mxPoint x="38" y="148" as="sourcePoint"/>
                        <mxPoint x="359" y="132" as="targetPoint"/>
                        <Array as="points">
                            <mxPoint x="414" y="82"/>
                        </Array>
                    </mxGeometry>
                </mxCell>
            </root>
        </mxGraphModel>
    </diagram>
</mxfile>